/* XPM */
static char *df38728e76dd4f8fcad8ee2a9209f139iV6r9Qn6hBtN1iEq[] = {
/* columns rows colors chars-per-pixel */
"40 40 121 2 ",
"   c #020202",
".  c #080507",
"X  c #0B0B0B",
"o  c #131313",
"O  c #1B1B1B",
"+  c #250F09",
"@  c #2E1F1D",
"#  c #352117",
"$  c #232323",
"%  c #2B2B2B",
"&  c #343434",
"*  c #3C3C3C",
"=  c #433427",
"-  c #4D413F",
";  c #434343",
":  c #4B4341",
">  c #444448",
",  c #484748",
"<  c #4C4C4C",
"1  c #545454",
"2  c #5C5C5C",
"3  c #6E5E55",
"4  c #625C58",
"5  c #73624D",
"6  c #646464",
"7  c #6B6B6B",
"8  c #706F6E",
"9  c #737373",
"0  c #757778",
"q  c #7B7B7B",
"w  c #CC1D20",
"e  c #EA5F09",
"r  c #E1720F",
"t  c #DA4433",
"y  c #856955",
"u  c #8A7E60",
"i  c #857F7B",
"p  c #D25859",
"a  c #D15C65",
"s  c #CE756E",
"d  c #CF7C7A",
"f  c #F58523",
"g  c #FAA73C",
"h  c #FBCC18",
"j  c #908467",
"k  c #8E8171",
"l  c #A18074",
"z  c #A08D78",
"x  c #DD8757",
"c  c #FEC449",
"v  c #FFE661",
"b  c #FFEB72",
"n  c #848484",
"m  c #8C8B8C",
"M  c #939394",
"N  c #9C9C9C",
"B  c #A49D88",
"V  c #AAA299",
"C  c #B7A39E",
"Z  c #A4A4A4",
"A  c #A8A5A0",
"S  c #A7AAA8",
"D  c #ADADAC",
"F  c #B6AAA2",
"G  c #B1B0AF",
"H  c #B3B3B2",
"J  c #BAB6B0",
"K  c #BCBCBC",
"L  c #DF9595",
"P  c #C4AA8A",
"I  c #C4AD92",
"U  c #CBAF95",
"Y  c #CCB495",
"T  c #CAB599",
"R  c #CEB89C",
"E  c #D0B697",
"W  c #D1B89A",
"Q  c #CFBBA1",
"!  c #D0BBA0",
"~  c #D4BFA9",
"^  c #E3BAB4",
"/  c #D5C3AD",
"(  c #D8C6AD",
")  c #D9C8AF",
"_  c #C3C2BE",
"`  c #DCCBB5",
"'  c #DCCDBA",
"]  c #E9C8A3",
"[  c #EDD2B4",
"{  c #E2D2BE",
"}  c #EAD0BC",
"|  c #C3C3C3",
" . c #C7C7C8",
".. c #CDCCCB",
"X. c #CFD0D2",
"o. c #D5D5D5",
"O. c #DCDCDC",
"+. c #E5D8C5",
"@. c #E5DBCD",
"#. c #E7DAD0",
"$. c #E7E0D5",
"%. c #E8E1D4",
"&. c #EBE4DC",
"*. c #F5ECDF",
"=. c #F2DDE4",
"-. c #E3E3E4",
";. c #E5E7E8",
":. c #ECECEC",
">. c #F2ECE5",
",. c #F5F3EB",
"<. c #F3F3F4",
"1. c #F8F6F5",
"2. c #F9F7FF",
"3. c #FDFFFF",
"4. c #FEFEFE",
"5. c #FEFFFE",
"6. c #FEFEFF",
"7. c #FEFFFF",
"8. c white",
"9. c #FDFDFD",
"0. c #FEFEFD",
/* pixels */
"9.9.9.9.9.9.9.9.9.9.9.9.9.9.9.9.9.9.9.9.9.9.9.9.9.9.9.9.9.9.9.9.9.9.9.9.9.9.9.9.",
"9.9.9.9.9.9.9.9.9.9.9.9.9.9.9.9.9.9.9.9.9.9.9.9.9.9.9.9.9.9.9.9.9.9.9.9.9.9.9.9.",
"9.9.9.9.9.9.9.9.9.9.9.9.9.9.9.9.9.9.9.9.9.9.9.9.9.9.9.9.9.9.9.9.9.9.9.9.9.9.9.9.",
"9.9.9.<.a =.9.9.9.9.9.9.9.9.9.9.9.9.9.9.9.9.9.9.9.9.%.R E ~ &.9.9.9.9.9.9.9.9.9.",
"9.9.9.9.L e t w p 9.9.9.9.9.9.9.9.9.9.9.9.9.9.9.#.P ' 9.9.9.{ { 9.9.9.9.9.9.9.9.",
"9.9.9.3.2.r b c f ^ 9.9.9.9.9.9.9.9.9.9.9.9.>.P ' 9.9.9.9.9.9.{ >.9.9.9.9.9.9.9.",
"9.9.9.9.9.s g h v ] 9.9.9.9.9.9.9.9.9.9.1.! R 9.9.9.9.9.9.9.9.*.@.9.9.9.9.9.9.9.",
"9.9.9.9.9.9.d x [ } U / $.,.9.9.9.3.>.Q Y >.9.9.9.9.9.M o.9.9.` ,.9.9.9.9.9.9.9.",
"9.9.9.9.9.9.9.9.9.9.9.,.+.) R T Y W ) ,.9.9.9.9.9.9.M S 6 0 &.( 9.9.9.9.9.9.9.9.",
"9.9.9.9.9.9.9.9.9.9.9.9.9.9.9.9.9.9.9.<.9.9.9.9.9.K Z m 6 > I | 9.9.9.9.9.9.9.9.",
"9.9.9.9.9.9.9.9.9.9.9.9.9.9.9.G q n M N N n 9 D o.m M 7 2 o O   S 9.9.9.9.9.9.9.",
"9.9.9.9.9.9.9.9.9.9.9.9.9.m 1 _ 9.9.9.<.9.m ; 2 7 D 9 2 O     % . 9.9.9.9.9.9.9.",
"9.9.9.9.9.9.9.9.9.9.9.<.& S ;.X.....o.o.-.*     O 9 7 *         N 9.9.9.9.9.9.9.",
"9.9.9.9.9.9.9.9.9.9.O.@ C F J _ _ K K K  .< $ $ o   ; O       < 9.9.9.9.9.9.9.9.",
"9.9.9.9.9.9.9.9.9.<.+ l z B V A D H H N Z ; O $ % %   o .   o 9.9.9.9.9.9.9.9.9.",
"9.9.9.9.9.9.9.9.9.# y u j k i n m M M N n ; O $ $ % $        .9.9.9.9.9.9.9.9.9.",
"9.9.9.9.9.9.9.9.m = 5 5 3 4 6 6 7 8 9 q n < o O O $ % %     X 9.9.9.9.9.9.9.9.9.",
"9.9.9.9.9.9.9.9.. : : - : ; , < < 1 1 ; * < o o O O $ % *     D 9.9.9.9.9.9.9.9.",
"9.9.9.9.9.9.9.S o & & & & & & & * O o O % & * X o o O $ & o   % 9.9.9.9.9.9.9.9.",
"9.9.9.9.9.9.9.< % & % % % % % %   . X o O $ % O X X o o $ O     9.9.9.9.9.9.9.9.",
"9.9.9.9.9.9.9.o % % % $ $ $ $       . X X o O $ . X X o o $      .9.9.9.9.9.9.9.",
"9.9.9.9.9.9.9.  % % % $ $ $ X           . X o O X   . X o O     N 9.9.9.9.9.9.9.",
"9.9.9.9.9.9.9.    . X X o O   . .         . X X X     . X O o   n 9.9.9.9.9.9.9.",
"9.9.9.9.9.9.9.    o o o o X X X . .         . X X       X $ $   M 9.9.9.9.9.9.9.",
"9.9.9.9.9.9.9.    X $ O O O o o X X . . .     . .       X & *   H 9.9.9.9.9.9.9.",
"9.9.9.9.9.9.9.&     & % $ $ $ O o o X X . . . . .       $ ; ;   :.9.9.9.9.9.9.9.",
"9.9.9.9.9.9.9.n X   O * & % % $ $ O o o X X . . .       1 1 *   9.9.9.9.9.9.9.9.",
"9.9.9.9.9.9.9.<.  O   & ; * & & % $ O O o X X .       & 2 2 O 9 9.9.9.9.9.9.9.9.",
"9.9.9.9.9.9.9.9.; ;     ; ; * * & & % $ O o X X .   O 6 2 6   9.9.9.9.9.9.9.9.9.",
"9.9.9.9.9.9.9.9.9.  ;     * < * * * & % $ O o X   % 7 2 6 O q 9.9.9.9.9.9.9.9.9.",
"9.9.9.9.9.9.9.9.9.Z % %     $ < ; ; * & % O o o < 7 6 6 < o 9.9.9.9.9.9.9.9.9.9.",
"9.9.9.9.9.9.9.9.9.9.7 * &       O & ; * * * < 6 6 6 7 1 X 9.9.9.9.9.9.9.9.9.9.9.",
"9.9.9.9.9.9.9.9.9.9.9.n $ 2       . o % * < 1 2 6 7 & O 9.9.9.9.9.9.9.9.9.9.9.9.",
"9.9.9.9.9.9.9.9.9.9.9.9.o.O 1 < X X O % * < 2 6 *   n 9.9.9.9.9.9.9.9.9.9.9.9.9.",
"9.9.9.9.9.9.9.9.9.9.9.9.9.9.S * * & * & $ $ o o 9 9.9.9.9.9.9.9.9.9.9.9.9.9.9.9.",
"9.9.9.9.9.9.9.9.<.:.-.o.| S M q 2 $ X . . o * 9 n M H ..O.;.<.9.9.9.9.9.9.9.9.9.",
"9.9.9.9.9.9.9.9.9.9.9.9.<.<.:.;.-.-.O.o.O.O.-.-.:.<.<.9.9.9.9.9.9.9.9.9.9.9.9.9.",
"9.9.9.9.9.9.9.9.9.9.9.9.9.9.9.9.9.9.9.9.9.9.9.9.9.9.9.9.9.9.9.9.9.9.9.9.9.9.9.9.",
"9.9.9.9.9.9.9.9.9.9.9.9.9.9.9.9.9.9.9.9.9.9.9.9.9.9.9.9.9.9.9.9.9.9.9.9.9.9.9.9.",
"9.9.9.9.9.9.9.9.9.9.9.9.9.9.9.9.9.9.9.9.9.9.9.9.9.9.9.9.9.9.9.9.9.9.9.9.9.9.9.9."
};
