/* XPM */
static char *_2363400f2b14a3d99b5271b46ba59b8lVJ5ikhkKqvEDTVA[] = {
/* columns rows colors chars-per-pixel */
"40 40 97 2 ",
"   c #271B21",
".  c #27222E",
"X  c #2F232A",
"o  c #352528",
"O  c #37272A",
"+  c #2A2532",
"@  c #352C34",
"#  c #372E36",
"$  c #3E353C",
"%  c #3F353C",
"&  c #493639",
"*  c #4A373A",
"=  c #4C383B",
"-  c #4A3D40",
";  c #493D46",
":  c #493E46",
">  c #4A3E47",
",  c #4A3F47",
"<  c #4C3F47",
"1  c #4F4144",
"2  c #735F63",
"3  c #756165",
"4  c #776266",
"5  c #776367",
"6  c #796469",
"7  c gray50",
"8  c #8F522E",
"9  c #A15B31",
"0  c #9F603C",
"q  c #9C6546",
"w  c #9C6646",
"e  c #AA6C48",
"r  c #A9704D",
"t  c #BE7E57",
"y  c #B17A59",
"u  c #BE8562",
"i  c #C2835B",
"p  c #C4835A",
"a  c #C4845C",
"s  c #C7875E",
"d  c #C08765",
"f  c #C88860",
"g  c #C98960",
"h  c #C88A62",
"j  c #C48B68",
"k  c #C68D6A",
"l  c #C68E6A",
"z  c #D69164",
"x  c #D4956D",
"c  c #C79373",
"v  c #CD9777",
"b  c #C69779",
"n  c #C4977B",
"m  c #CD9978",
"M  c #E1A37A",
"N  c #E6A77D",
"B  c #C59E87",
"V  c #CA9C81",
"C  c #C39D88",
"Z  c #DAA786",
"A  c #DAA787",
"S  c #C1A291",
"D  c #C6A896",
"F  c #C8AE9F",
"G  c #EBAC81",
"H  c #FDBE93",
"J  c #CFBAAE",
"K  c #D1BAB0",
"L  c #FFC298",
"P  c #FFC299",
"I  c #FFC49C",
"U  c #FFC79C",
"Y  c #FFC79D",
"T  c #FFC69E",
"R  c #FFC89F",
"E  c #FFC99F",
"W  c #FFC8A0",
"Q  c #FFC9A0",
"!  c #FFC9A1",
"~  c #FFCBA1",
"^  c #FFCAA2",
"/  c #FFCCA3",
"(  c #FFCEA5",
")  c #FFCFA6",
"_  c #FFD4AB",
"`  c #FFD6AC",
"'  c #FFD8AA",
"]  c #FFD9AB",
"[  c #FFDAAC",
"{  c #FFDDAF",
"}  c #FFDEAF",
"|  c #FFD4B4",
" . c #FFDBBA",
".. c #DED0C8",
"X. c #E2D5CE",
"o. c #E9E1DD",
"O. c #F3F1F1",
/* pixels */
"7 7 7 7 7 7 7 7 7 7 7 7 7 7 7 O.J B v r 7 7 7 7 7 7 7 7 7 7 7 7 7 7 7 7 7 7 7 7 ",
"7 7 7 7 7 7 7 7 7 7 7 7 ..S u x H I  .c 7 7 7 7 7 7 7 7 7 7 7 7 7 7 7 7 7 7 7 7 ",
"7 7 7 7 7 7 9 f t 8 0 i N I ! R I P | V p s s s s s s s s s s s s 9 7 7 7 7 7 7 ",
"7 7 7 7 7 7 s ` y ! ) ! I I I I I P | n } [ [ [ [ ' ' ' ' ' ' ' ) s 7 7 7 7 7 7 ",
"7 7 7 7 7 7 s ) k ! I I I I I I I P | Z . # # # # < ; ; ; ; ; + ' s 7 7 7 7 7 7 ",
"7 7 7 7 7 7 s ) j ! I I I I I I I P | Z % 1 1 1 - 6 3 3 3 3 3 ; ' s 7 7 7 7 7 7 ",
"7 7 7 7 7 7 s ) j ! I I I I I I I P | Z % 1 1 1 - 3 2 2 2 2 3 ; ' s 7 7 7 7 7 7 ",
"7 7 7 7 7 7 s ) j ! I I I I I I I P | Z % 1 1 1 - 3 2 2 2 2 3 ; ' s 7 7 7 7 7 7 ",
"7 7 7 7 7 7 s ) j ! I I I I I I I P | Z % 1 1 1 - 3 2 2 2 2 3 ; ' s 7 7 7 7 7 7 ",
"7 7 7 7 7 7 a ) j ! I I I I I I I P | Z % 1 1 1 - 3 2 2 2 2 3 ; ' s 7 7 7 7 7 7 ",
"7 7 7 7 7 7 s ) j ! I I I I I I I P | Z % 1 1 1 - 3 2 2 2 2 3 ; ' s 7 7 7 7 7 7 ",
"7 7 7 7 7 7 s ) j ! I I I I I I I P | Z % 1 1 1 - 3 2 2 2 2 3 ; ' s 7 7 7 7 7 7 ",
"7 7 7 7 7 7 s ) j ! I I I I I I I P | Z % 1 1 1 - 3 2 2 2 2 3 ; ' s 7 7 7 7 7 7 ",
"7 7 7 7 7 7 s ) j ! I I I I I I I P | Z % 1 1 1 - 3 2 2 2 2 3 ; ' s 7 7 7 7 7 7 ",
"7 7 7 7 7 7 s ) j ! I I I I I I I P | Z % 1 1 1 - 3 2 2 2 2 3 ; ' s 7 7 7 7 7 7 ",
"7 7 7 7 7 7 s ) j ! I I I I I I I P | Z % 1 1 1 - 3 2 2 2 2 3 ; ' s 7 7 7 7 7 7 ",
"7 7 7 7 7 7 s ) j ! I I I I I I I P | Z % 1 1 1 - 3 2 2 2 2 3 ; ' s 7 7 7 7 7 7 ",
"7 7 7 7 7 7 s ) j ! I I I I I I I P | Z % 1 1 1 - 3 2 2 2 2 3 ; ' s 7 7 7 7 7 7 ",
"7 7 7 7 7 7 s ) j ! I I I I I I / P | Z % 1 1 1 - 3 2 2 2 2 3 ; ' s 7 7 7 7 7 7 ",
"7 7 7 7 7 7 s ) j ! I I I I I / q ! | Z % 1 1 1 - 3 2 2 2 2 3 ; ' s 7 7 7 7 7 7 ",
"7 7 7 7 7 7 s ) j ! I I I I I / q ! | Z % 1 1 1 - 3 2 2 2 2 3 ; ' s 7 7 7 7 7 7 ",
"7 7 7 7 7 7 s ) j ! I I I I I I / P | Z % 1 1 1 - 3 2 2 2 2 3 ; ' s 7 7 7 7 7 7 ",
"7 7 7 7 7 7 s ) j ! I I I I I I I P | Z % 1 1 1 - 3 2 2 2 2 3 ; ' s 7 7 7 7 7 7 ",
"7 7 7 7 7 7 s ) j ! I I I I I I I P | Z % 1 1 1 - 3 2 2 2 2 3 ; ' s 7 7 7 7 7 7 ",
"7 7 7 7 7 7 s ) j ! I I I I I I I P | Z % 1 1 1 - 3 2 2 2 2 3 ; ' s 7 7 7 7 7 7 ",
"7 7 7 7 7 7 s ) j ! I I I I I I I P | Z % 1 1 1 - 3 2 2 2 2 3 ; ' s 7 7 7 7 7 7 ",
"7 7 7 7 7 7 s ) j ! I I I I I I I P | Z % 1 1 1 - 3 2 2 2 2 3 ; ' s 7 7 7 7 7 7 ",
"7 7 7 7 7 7 s ) j ! I I I I I I I P | Z % 1 1 1 - 3 2 2 2 2 3 ; ' s 7 7 7 7 7 7 ",
"7 7 7 7 7 7 s ) j ! I I I I I I I P | Z % 1 1 1 - 3 2 2 2 2 3 ; ' s 7 7 7 7 7 7 ",
"7 7 7 7 7 7 s ) j ! I I I I I I I P | Z % 1 1 1 - 3 2 2 2 2 3 ; ' s 7 7 7 7 7 7 ",
"7 7 7 7 7 7 s ) j ! I I I I I I I P | Z % 1 1 1 - 3 2 2 2 2 3 ; ' s 7 7 7 7 7 7 ",
"7 7 7 7 7 7 s ) j ! I I I I I I I P | Z % 1 1 1 - 3 2 2 2 2 3 ; ' s 7 7 7 7 7 7 ",
"7 7 7 7 7 7 s ) j ! I I I I I I I P | Z % 1 1 1 - 3 2 2 2 2 3 ; ' s 7 7 7 7 7 7 ",
"7 7 7 7 7 7 s ) j ! I I I I I I I P | Z % 1 1 1 - 3 2 2 2 2 3 ; ' s 7 7 7 7 7 7 ",
"7 7 7 7 7 7 s ) j ! I I I I I I I P | Z % 1 1 1 - 3 2 2 2 2 3 ; ' s 7 7 7 7 7 7 ",
"7 7 7 7 7 7 s ) j ! I I I I I I I P | Z % 1 1 1 - 3 2 2 2 2 3 ; ' s 7 7 7 7 7 7 ",
"7 7 7 7 7 7 s _ k / I I I I I I I P | Z % 1 1 1 - 6 3 3 3 3 3 ; } s 7 7 7 7 7 7 ",
"7 7 7 7 7 7 9 f e G P I R ! I I I P | Z   O O O O = & & & & & X z 9 7 7 7 7 7 7 ",
"7 7 7 7 7 7 7 7 7 X.F C d f M H I I  .c 7 7 7 7 7 7 7 7 7 7 7 7 7 7 7 7 7 7 7 7 ",
"7 7 7 7 7 7 7 7 7 7 7 7 7 7 o.K D n m r 7 7 7 7 7 7 7 7 7 7 7 7 7 7 7 7 7 7 7 7 "
};
