/* XPM */
static char *afbd0eaa4af6405df4c682b10de13d581yhUQGvUmLobxjX5[] = {
/* columns rows colors chars-per-pixel */
"40 40 151 2 ",
"   c #950000",
".  c #9D0500",
"X  c #9D0D03",
"o  c #A50300",
"O  c #A80100",
"+  c #B50000",
"@  c #BB0201",
"#  c #BD0A00",
"$  c #BD0A0A",
"%  c #A1190E",
"&  c #B11000",
"*  c #BF150D",
"=  c #B11C0F",
"-  c #B40F10",
";  c #BE1718",
":  c #B13300",
">  c #A72418",
",  c #A9281C",
"<  c #C00F03",
"1  c #C01303",
"2  c #C21609",
"3  c #C31B13",
"4  c #C62100",
"5  c #C73209",
"6  c #C5251A",
"7  c #C52E21",
"8  c #C63226",
"9  c #CC3D2D",
"0  c #CD3F34",
"q  c #BE540A",
"w  c #AC4038",
"e  c #CC4300",
"r  c #D14500",
"t  c #C75517",
"y  c #D96100",
"u  c #D77100",
"i  c #E27C04",
"p  c #E37F0E",
"a  c #C14135",
"s  c #CE413B",
"d  c #CE483C",
"f  c #D1473D",
"g  c #B64E46",
"h  c #BF584F",
"j  c #CF4F43",
"k  c #C74A4E",
"l  c #CF4D49",
"z  c #CC464C",
"x  c #D04F44",
"c  c #D2544C",
"v  c #D15757",
"b  c #D35D53",
"n  c #D6645B",
"m  c #D8645A",
"M  c #D7685F",
"N  c #E07C4B",
"B  c #C56F6D",
"V  c #D86E65",
"C  c #D5666D",
"Z  c #CA746C",
"A  c #D5736B",
"S  c #DA766D",
"D  c #DA786F",
"F  c #CA7B74",
"G  c #DC7B73",
"H  c #DB7B7F",
"J  c #D98600",
"K  c #DC8C05",
"L  c #E68300",
"P  c #E58C01",
"I  c #E68A0B",
"U  c #EB9403",
"Y  c #E29D00",
"T  c #EC9E04",
"R  c #DFA700",
"E  c #DFB000",
"W  c #F2A900",
"Q  c #E5B701",
"!  c #EEBF01",
"~  c #F6B500",
"^  c #F4B900",
"/  c #E1872B",
"(  c #E59227",
")  c #EBA32F",
"_  c #ECC100",
"`  c #F6C401",
"'  c #F9C600",
"]  c #F0CB00",
"[  c #FBC900",
"{  c #FDD401",
"}  c #FFDA03",
"|  c #FED30F",
" . c #FACB12",
".. c #F9CC1A",
"X. c #FED517",
"o. c #FFEB00",
"O. c #FAD434",
"+. c #EDB644",
"@. c #DF8760",
"#. c #CB847D",
"$. c #D4877F",
"%. c #DE847C",
"&. c #F0BA60",
"*. c #FEDC47",
"=. c #FAD74D",
"-. c #FADB4F",
";. c #FADB5D",
":. c #FAD65D",
">. c #ECC366",
",. c #FEE469",
"<. c #FCE17A",
"1. c #CA8185",
"2. c #D38D84",
"3. c #D2908B",
"4. c #D19694",
"5. c #D59892",
"6. c #D59D98",
"7. c #E08B84",
"8. c #E3928A",
"9. c #E49893",
"0. c #D7A29D",
"q. c #D9A09B",
"w. c #E6A29D",
"e. c #DCA9A5",
"r. c #DDAEAA",
"t. c #DDAEB8",
"y. c #DFB5B1",
"u. c #E7ABA6",
"i. c #E5A2A9",
"p. c #E7B2AE",
"a. c #EAB4AC",
"s. c #E3BAB6",
"d. c #ECBEBC",
"f. c #E6B4B2",
"g. c #FFEC80",
"h. c #EACFCD",
"j. c #F0C5C0",
"k. c #F3CBC8",
"l. c #F3D2CE",
"z. c #E7CADE",
"x. c #EDD5D3",
"c. c #F4D5D3",
"v. c #F5DDDB",
"b. c #FEF7C7",
"n. c #F5E2E1",
"m. c #F8E4E1",
"M. c #F6E9E8",
"N. c #F9EAE9",
"B. c #FBF5F4",
"V. c #FBF7FE",
"C. c #FEFEFE",
/* pixels */
"C.C.C.C.C.C.C.C.C.C.C.C.C.C.C.C.C.C.C.C.C.C.C.C.C.C.C.C.C.C.C.C.C.C.C.C.C.C.C.C.",
"C.C.C.C.C.C.C.C.C.C.C.C.C.C.C.C.C.C.C.C.C.C.C.C.C.C.C.C.C.C.C.C.C.C.C.C.C.C.C.C.",
"C.C.C.C.C.C.C.C.C.C.C.C.C.C.C.C.C.C.C.C.C.C.C.C.C.C.C.C.C.C.C.C.C.C.C.C.C.C.C.C.",
"C.C.C.C.C.C.C.C.C.C.C.C.C.C.C.C.C.C.C.C.C.C.C.C.C.C.C.C.C.C.C.C.C.C.C.C.C.C.C.C.",
"C.C.C.C.C.C.C.C.C.C.C.C.C.C.C.C.C.C.C.C.C.C.C.C.C.C.C.C.C.C.C.C.C.C.C.C.C.C.C.C.",
"C.C.C.C.C.C.C.C.C.C.C.C.C.C.C.C.C.v.B.V.C.C.C.C.C.C.C.C.C.C.C.C.C.C.C.C.C.C.C.C.",
"C.C.C.C.C.C.C.C.C.C.C.C.C.C.C.C.C.w.v.C.C.C.C.C.C.C.C.C.C.C.C.C.C.C.C.C.C.C.C.C.",
"C.C.C.C.C.C.C.C.C.w.u.C.V.C.C.B.C.V c.C.C.C.C.C.C.C.C.C.C.C.C.C.C.C.C.C.C.C.C.C.",
"C.C.C.C.C.C.V.C.C.B.%.v.C., C.C.C.m $.C.C.C.8.7.C.C.C.B.C.C.C.C.C.C.C.C.C.C.C.C.",
"C.C.C.C.C.V.C.C.C.C.S 6 C.. f.C.C.C   V.C.v.x C.C.C.C.C.c.%.C.C.C.C.C.C.C.C.C.C.",
"C.C.C.C.V.C.C.g C.C.w.# C.X . f V.:.[ *.V.+ G 4.s.C.C.3 d C.B.C.C.C.C.C.C.C.C.C.",
"C.C.C.C.C.C.C.B.X F C.n @ q o.P y { [ ' ^ 3 & 4.C.S @ j C.B.C.C.V.C.C.C.C.C.C.C.",
"C.C.C.C.C.C.C.C.p.% #.k e } ' [ X.;. .' ' T Y 2.l @ d C.B.C.C.C.C.C.C.C.C.C.C.C.",
"C.C.C.C.C.C.C.v.M A o : -.[ ` ' ' ' ` ' ' [ { L 1 c C.B.C.C.C.C.C.C.C.C.C.C.C.C.",
"C.C.C.C.C.C.C.C.N.0 < W g.' ' ' ' '  .=.;.` [ [ i j.C.C.s.h.C.C.C.C.C.C.C.C.C.C.",
"C.C.C.C.C.C.A S n.V.z U [ ' ' ' ` '  .=.;. .' ' { / H G a s.C.C.C.C.C.C.C.C.C.C.",
"C.C.C.C.C.C.u.9.6 @.) ^ ' ' ' ` ' ' ' ` '  .` ;.O.^ r # 1 7.C.C.C.C.C.C.C.C.C.C.",
"C.C.C.C.C.C.C.C.d.&.` ' ' [ ` ' ' ' ` ' ' ` ' ..;.| W C l.v.C.C.C.C.C.C.C.C.C.C.",
"C.C.C.C.C.C.C.C.C.C.,.E ` ` [ ' ` ' ' [ ` [ ' ` ,.{ b.V.C.C.C.C.V.C.C.C.C.C.C.C.",
"C.C.C.C.C.C.C.C.a.* i { ` [ ' ' [ ' [ ` [ ' ` ' { 4 C.C.C.C.C.V.C.C.C.C.C.C.C.C.",
"C.C.C.C.C.C.8 # # ; I { [ ' [ ! Q [ ` ' [ ' ` ! { 5 @ C.C.C.C.C.C.C.C.C.C.C.C.C.",
"C.C.C.C.V.C.y.C.C.C.<.~ R ` ' ' [ ! ' ' ` [ ' | ( 9 2 + Z C.C.C.C.C.C.C.C.C.C.C.",
"C.C.C.C.C.C.C.C.C.C.v + N [ ` ' ` ` ` [ [ [ [ >.V.C.b f S V.V.C.C.C.C.C.C.C.C.C.",
"C.C.C.C.C.C.C.C.C.b 8 M z.P } ` ! _ ] J K U P t B n.C.C.C.v.C.C.V.C.C.C.C.C.C.C.",
"C.C.C.C.C.C.C.C.b 7 v.C.w $ I +.u p L 1.  - @ s Z 2.x.C.C.C.C.C.C.C.C.C.C.C.C.C.",
"C.C.C.C.C.C.C.D 8.c.C.0.= < i.t.O 3 @ C.#.> 8.# k.x.x.C.C.C.C.C.C.C.C.C.C.C.C.C.",
"C.C.C.C.C.C.C.p.C.C.5.6.2 S C.3.h n # B.C.q.e.a.c N.C.C.C.C.C.C.C.C.C.C.C.C.C.C.",
"C.C.C.C.C.C.C.C.C.x.r.d.j.B.M.F C.G @ B.C.V.v.C.l.B.C.C.C.C.C.C.C.C.C.C.C.C.C.C.",
"C.C.C.C.C.C.C.C.C.B.C.c.V.C.M.e.C.n + B.C.C.C.C.C.C.C.C.C.C.C.C.C.C.C.C.C.C.C.C.",
"C.C.C.C.C.C.V.C.C.V.C.C.C.C.C.C.C.n.G B.C.V.C.C.C.C.V.C.C.C.C.C.C.C.C.C.C.C.C.C.",
"C.C.C.C.C.C.C.C.C.C.C.C.C.V.C.C.C.C.m.C.V.C.C.C.C.C.C.C.C.C.C.C.V.C.C.C.C.C.C.C.",
"C.C.C.C.C.C.C.C.C.C.C.C.C.C.C.C.C.C.C.V.C.C.C.C.C.C.C.C.C.C.C.V.C.C.C.C.C.C.C.C.",
"C.C.C.C.C.C.V.C.C.C.C.C.C.C.C.C.C.C.V.C.C.C.C.C.C.C.C.C.C.C.C.C.C.C.C.C.C.C.C.C.",
"C.C.C.C.C.C.C.C.C.C.C.C.C.C.C.C.C.C.C.C.C.C.C.C.C.C.C.C.C.C.C.C.C.C.C.C.C.C.C.C.",
"C.C.C.C.C.C.C.C.C.C.C.C.C.C.C.C.C.C.C.C.C.C.C.C.C.C.C.C.C.C.C.C.C.C.C.C.C.C.C.C.",
"C.C.C.C.C.C.C.C.C.C.C.C.C.C.C.C.C.C.C.C.C.C.C.C.C.C.C.C.C.C.C.C.C.C.C.C.C.C.C.C.",
"C.C.C.C.C.C.C.C.C.C.C.C.C.C.C.C.C.C.C.C.C.C.C.C.C.C.C.C.C.C.C.C.C.C.C.C.C.C.C.C.",
"C.C.C.C.C.C.C.C.C.C.C.C.C.C.C.C.C.C.C.C.C.C.C.C.C.C.C.C.C.C.C.C.C.C.C.C.C.C.C.C.",
"C.C.C.C.C.C.C.C.C.C.C.C.C.C.C.C.C.C.C.C.C.C.C.C.C.C.C.C.C.C.C.C.C.C.C.C.C.C.C.C.",
"C.C.C.C.C.C.C.C.C.C.C.C.C.C.C.C.C.C.C.C.C.C.C.C.C.C.C.C.C.C.C.C.C.C.C.C.C.C.C.C."
};
