/* XPM */
static char *_cf2d9a760ec4b43b6073297c07e6c4a7YkWKALaLYgGL9Uh[] = {
/* columns rows colors chars-per-pixel */
"40 40 171 2 ",
"   c #333227",
".  c #36352A",
"X  c #39372C",
"o  c #3B3A2F",
"O  c #3E3D32",
"+  c #333938",
"@  c #36383A",
"#  c #273436",
"$  c #414036",
"%  c #45443C",
"&  c #48473D",
"*  c #4A493E",
"=  c #504E3F",
"-  c #56523D",
";  c #5A543C",
":  c #675E37",
">  c #695A37",
",  c #7A6B2E",
"<  c #6D6335",
"1  c #796B30",
"2  c #766931",
"3  c #2C344E",
"4  c #3B3F47",
"5  c #363C49",
"6  c #393E48",
"7  c #333948",
"8  c #212C52",
"9  c #3D4147",
"0  c #384149",
"q  c #434544",
"w  c #454844",
"e  c #4C4B41",
"r  c #444649",
"t  c #504F45",
"y  c #525147",
"u  c #55544A",
"i  c #5B5A4E",
"p  c #5B5949",
"a  c #5C5C53",
"s  c #575856",
"d  c #605F56",
"f  c #636256",
"g  c #69675B",
"h  c #6A695C",
"j  c #65645A",
"k  c #6F6E61",
"l  c #716F62",
"z  c #757365",
"x  c #7E7C6D",
"c  c #74746E",
"v  c #7A7A75",
"b  c #777976",
"n  c #BA0100",
"m  c #BA0800",
"M  c #BE1103",
"N  c #BF160E",
"B  c #BB0F15",
"V  c #BF1714",
"C  c #C01103",
"Z  c #C11609",
"A  c #C51A00",
"S  c #C21D13",
"D  c #CC320F",
"F  c #C42213",
"G  c #C92D11",
"H  c #C93424",
"J  c #987F1D",
"K  c #B56611",
"L  c #83552C",
"P  c #A35F20",
"I  c #8C7928",
"U  c #85732A",
"Y  c #937E26",
"T  c #917F33",
"R  c #D74A0C",
"E  c #D3400E",
"W  c #E66504",
"Q  c #EA6D06",
"!  c #E36009",
"~  c #ED7404",
"^  c #EE7B04",
"/  c #E37600",
"(  c #F27B03",
")  c #FF7800",
"_  c #F87600",
"`  c #877F58",
"'  c #807E6F",
"]  c #827F70",
"[  c #D56154",
"{  c #C66855",
"}  c #D96F63",
"|  c #AD911C",
" . c #BB9B17",
".. c #B59519",
"X. c #B99A1D",
"o. c #B2910C",
"O. c #A08721",
"+. c #C09E15",
"@. c #DB880B",
"#. c #EF8004",
"$. c #F18204",
"%. c #F28C04",
"&. c #F29503",
"*. c #D2AA0E",
"=. c #D0A600",
"-. c #DCB20B",
";. c #CBA510",
":. c #CFA910",
">. c #F3A202",
",. c #FEA700",
"<. c #E6B907",
"1. c #EABC05",
"2. c #F6B101",
"3. c #F5BB01",
"4. c #F8BC00",
"5. c #C4A62B",
"6. c #F4C201",
"7. c #F9C600",
"8. c #FCCC00",
"9. c #FED200",
"0. c #FFDA00",
"q. c #FACC18",
"w. c #FFDB15",
"e. c #FFE300",
"r. c #FCD22E",
"t. c #FFE138",
"y. c #8D8250",
"u. c #91885E",
"i. c #A79340",
"p. c #B29E4B",
"a. c #9D8362",
"s. c #848273",
"d. c #898777",
"f. c #84847B",
"g. c #8B8878",
"h. c #F4AD5C",
"j. c #FDD847",
"k. c #FBDC65",
"l. c #8B8B84",
"z. c #93938D",
"x. c #9E9D97",
"c. c #9C9C9C",
"v. c #A09F9A",
"b. c #A4A39E",
"n. c #A9A8A3",
"m. c #B3B2AE",
"M. c #B7B7B3",
"N. c #E39589",
"B. c #E59E93",
"V. c #EBB7AF",
"C. c #FCE58C",
"Z. c #FEEB92",
"A. c #FCEDB3",
"S. c #BFC9CA",
"D. c #C8C8C4",
"F. c #D0D0CD",
"G. c #D5D5D3",
"H. c #F0C9C6",
"J. c #FDF4CF",
"K. c #FDF6DD",
"L. c #E6E6E4",
"P. c #EBEAE9",
"I. c #F9F5E7",
"U. c #F6F5F5",
"Y. c #FEFEFE",
"T. c #FEFFFF",
"R. c white",
"E. c #FEFEFF",
"W. c #FDFDFD",
"Q. c #FEFEFE",
"!. c #F8E8E4",
/* pixels */
"R.R.R.R.R.R.R.R.R.R.R.R.R.R.R.R.R.R.R.R.R.R.R.R.R.R.R.R.R.R.R.R.R.R.R.R.R.R.R.R.",
"R.R.R.R.R.R.R.R.R.R.R.R.R.R.R.R.R.K.R.R.R.R.R.R.R.R.R.R.R.R.R.R.R.R.R.R.R.R.R.R.",
"R.R.R.R.R.R.R.R.R.R.R.R.R.R.R.R.R.k.R.R.R.R.R.R.R.R.R.R.R.R.R.R.R.R.R.R.R.R.R.R.",
"R.R.R.R.R.R.R.R.R.R.R.R.R.R.R.R.R.q.R.R.R.R.R.R.R.R.R.R.R.R.R.R.R.R.R.R.R.R.R.R.",
"R.R.R.R.R.R.R.R.R.R.R.R.R.R.R.R.R.r.Z.R.R.R.R.R.R.R.R.R.R.R.R.R.W.R.R.R.R.R.R.R.",
"R.R.R.R.R.R.R.R.R.R.R.R.R.R.M.m.R.j.T s O e f.P.R.R.R.R.R.R.R.J.C.R.R.R.R.R.R.R.",
"R.R.R.R.R.R.R.R.R.R.R.R.P.O O O % r % * e * %   x.R.R.R.R.R.J.6.R.R.R.R.R.R.R.R.",
"R.R.R.R.R.R.R.R.R.R.R.R.t % e e * e e * & & & * X x.R.R.R.I.3.A.R.R.R.R.R.R.R.R.",
"R.R.R.R.K.R.R.R.R.R.R.L.X e e e e e & u z x z i & X D.R.R.6.7.R.R.R.R.R.R.R.R.R.",
"R.R.R.R.K.q.I.R.R.R.R.l.% e * & e % i d.d.s.s.d.g & O + i.8.Z.R.R.R.R.R.R.R.R.R.",
"R.R.R.R.R.J.3.k.R.R.a O e * u s.s.z s.g t e a x d.u * e 7 o.R.R.R.R.R.R.R.R.R.R.",
"R.R.R.R.R.R.C.4.w.f.O e e e s.' ' s.f % e e * % ` z % & * @ R.R.R.R.R.R.R.R.R.R.",
"R.R.R.R.R.R.R.t.=.@ e e & a p.b ] s.& e e e e e J c l l e $ z.D.R.R.R.R.R.R.R.R.",
"R.R.R.R.R.R.R.c.@ e e * y c X.* & i * e e e q O., a s.s.x & $ O   l.R.R.R.R.R.R.",
"R.R.R.R.R.R.R.  e e * e g.w U ..q * e e e e 6 6.- e s.] s.u & & e O j R.R.R.R.R.",
"R.R.R.R.R.R.R.X e e % z z % ; 0.5 e w , w e e e.4 u x h x g g j e * o b.R.R.R.R.",
"R.R.R.R.R.R.b.$ e * x d.f * 6 0.1 w q ..q q I 9.6 e & & % f d.s.s.t * O R.R.R.R.",
"R.R.R.R.R.P.  e & a d.i & e 6 6.:.6 ; :.9 9 *.1.4 e e e e & h s.` u.& o F.R.R.R.",
"R.R.R.R.R.v % & p y.a & e e 9 :.0.6 I *.9 6 9.*.9 e e ; e * y f  .s a O n.R.R.R.",
"R.R.R.R.R.$ % k b 5.* e e e q | 9.Y *.-.5 < 0.+.4 6 <.q e e 6 6.= & f O v.R.R.R.",
"R.R.R.R.W.X u h $ q 6.6 e e q Y 8.8.8.1.3 | 9. .3 1. .q e 5 ;.+.9 e u O m.R.R.R.",
"R.R.R.R.U.X u & e q ....9 e w 1 9.7.7.8.8 3.8.6.<.0.: e 4 Y e.q e e e X L.R.R.R.",
"R.R.R.R.R.X * e e e q e.: w w : 9.7.7.8.U 9.7.7.8.7.5 q < 0...9 e e & y R.R.R.R.",
"R.R.R.R.R.a & e e e 9  .9.9 w ; 9.7.7.7.8.7.4.3.8. .5 ; 9.9.e e e e   G.R.R.R.R.",
"R.R.R.R.R.M.o e e e w ; 0.*.7 - 9.7.2.7.7.7.&.6.8.I = 8.8.:.6 e %   n.R.R.R.R.R.",
"R.R.R.R.R.R.y % e e e 0 @.0.| 2 9.4.%.8.7.9.^ 7.7.1.8.8.9.> w O a G.R.R.R.R.R.R.",
"R.R.R.R.R.R.R.* O * e w L ,.9.8.7.2.Q 7.7.6.Q 7.7.7.7.9.%.0 O P.R.R.R.R.R.R.R.R.",
"R.R.R.R.R.R.R.R.x.e O & 9 _ 4.7.7.>.~ >.9.>.Q 7.7.7.8.,.P q   W.R.R.R.R.R.R.R.R.",
"R.R.R.R.R.R.R.R.R.R.R.a + K ( 8.8.&.W ^ 9.$.Q 8.7.7.3.) ; $ a R.R.R.R.R.R.R.R.R.",
"R.R.R.R.R.R.R.R.R.R.R.R.v a._ %.0.#.R ( ^ Q ! 9.7.7.( / # $ U.R.R.R.R.R.R.R.R.R.",
"R.R.R.R.R.R.R.R.R.R.R.R.R.R.~ ~ ^ ^ F $.$.E Q 8.9.$.( { S.R.R.R.R.R.R.R.R.R.R.R.",
"R.R.R.R.R.R.R.R.R.R.R.R.R.R.h.^ $.! B $.^ B ~ 8.%.$.A H.R.R.R.R.R.R.R.R.R.R.R.R.",
"R.R.R.R.R.R.R.R.R.R.R.R.R.R.H.W %.G S F S V ~ ^ $.D n R.R.R.R.R.R.R.R.R.R.R.R.R.",
"R.R.R.R.R.R.R.R.R.R.R.R.R.R.R.m F S F S F S R ^ G N H R.R.R.R.R.R.R.R.R.R.R.R.R.",
"R.R.R.R.R.R.R.R.R.R.R.R.R.R.R.[ Z F F F F F S V S Z } R.R.R.R.R.R.R.R.R.R.R.R.R.",
"R.R.R.R.R.R.R.R.R.R.R.R.R.R.R.V.n C M M C C M M C n B.R.R.R.R.R.R.R.R.R.R.R.R.R.",
"R.R.R.R.R.R.R.R.R.R.R.R.R.R.R.R.N.B.B.B.B.B.B.B.B.N.!.R.R.R.R.R.R.R.R.R.R.R.R.R.",
"R.R.R.R.R.R.R.R.R.R.R.R.R.R.R.R.R.R.R.R.R.R.R.R.R.R.R.R.R.R.R.R.R.R.R.R.R.R.R.R.",
"R.R.R.R.R.R.R.R.R.R.R.R.R.R.R.R.R.R.R.R.R.R.R.R.R.R.R.R.R.R.R.R.R.R.R.R.R.R.R.R.",
"R.R.R.R.R.R.R.R.R.R.R.R.R.R.R.R.R.R.R.R.R.R.R.R.R.R.R.R.R.R.R.R.R.R.R.R.R.R.R.R."
};
