/* XPM */
static char *_7ec7429f9a44a11d1a4ab83cd1542deXFqtY7EQz8QZj9DJ[] = {
/* columns rows colors chars-per-pixel */
"40 40 129 2 ",
"   c #3B3B3F",
".  c #403F44",
"X  c #374256",
"o  c #3C465B",
"O  c #374661",
"+  c #3B4965",
"@  c #424545",
"#  c #45464A",
"$  c #414A5B",
"%  c #504E51",
"&  c #505155",
"*  c #58575D",
"=  c #5B5B5F",
"-  c #434E62",
";  c #475266",
":  c #4D5567",
">  c #43526D",
",  c #4C566A",
"<  c #4E596D",
"1  c #5D5D61",
"2  c #525B6D",
"3  c #545E72",
"4  c #5F6064",
"5  c #566175",
"6  c #5A6375",
"7  c #5C6679",
"8  c #5E697E",
"9  c #626264",
"0  c #65656A",
"q  c #68676C",
"w  c #666B6B",
"e  c #6A6A6D",
"r  c #6E6D72",
"t  c #626B7D",
"y  c #727276",
"u  c #757579",
"i  c #78777C",
"p  c #777A7C",
"a  c #7A7B7E",
"s  c #636D81",
"d  c #677186",
"f  c #6A7385",
"g  c #6D768A",
"h  c #6E798D",
"j  c #7D7D82",
"k  c #737C8D",
"l  c #747E92",
"z  c #7E8282",
"x  c #768095",
"c  c #7A8294",
"v  c #7D8699",
"b  c #7F8898",
"n  c #828386",
"m  c #858589",
"M  c #88878C",
"N  c #86898B",
"B  c #8A8B8E",
"V  c #8D8D91",
"C  c #828B9C",
"Z  c #908F94",
"A  c #8E9093",
"S  c #929295",
"D  c #959599",
"F  c #98979C",
"G  c #96999B",
"H  c #9A9A9D",
"J  c #878FA0",
"K  c #8B93A5",
"L  c #9D9DA1",
"P  c #A09FA4",
"I  c #9EA1A3",
"U  c #A2A2A6",
"Y  c #A5A5AA",
"T  c #A8A7AB",
"R  c #A6A8AB",
"E  c #AAAAAE",
"W  c #ADADB2",
"Q  c #B0AFB3",
"!  c #AFB1B4",
"~  c #B2B2B6",
"^  c #B5B5BA",
"/  c #B8B7BB",
"(  c #B6B8BC",
")  c #BABABD",
"_  c #BABFBF",
"`  c #BFBCBE",
"'  c #BBBBC0",
"]  c #BDBEC2",
"[  c #BEBFC3",
"{  c #C0BFC3",
"}  c #BDC1C2",
"|  c #BFC1C3",
" . c #BFC0C4",
".. c #BFC1C5",
"X. c #C1C0C0",
"o. c #C2C3C7",
"O. c #C2C5C7",
"+. c #C4C4C6",
"@. c #C3C4C8",
"#. c #C3C7C8",
"$. c #C6C5CA",
"%. c #C8C6CA",
"&. c #C6C9CB",
"*. c #C5CACA",
"=. c #C8C9CD",
"-. c #CBCBCF",
";. c #CCCECF",
":. c #CDCDD1",
">. c #CFCFD1",
",. c #D0CFD4",
"<. c #CED0D3",
"1. c #CFD1D4",
"2. c #D0D1D5",
"3. c #D1D1D6",
"4. c #D1D2D6",
"5. c #D5D5D7",
"6. c #D6D4D7",
"7. c #D3D6D8",
"8. c #D6D6D8",
"9. c #D8D7DA",
"0. c #D8D7DB",
"q. c #D7D8DC",
"w. c #DADADD",
"e. c #DDDCE1",
"r. c #DFE4E4",
"t. c #E3E3E5",
"y. c #E5E4E9",
"u. c #E6E6E8",
"i. c #EAE8EC",
/* pixels */
"> s h d X l 8 s ; 5 3 3 l - 7 l 7 s g l < - c s s h 8 ; 8 5 d 7 h h h t l s - + ",
"C X.X.~ E >.q ) ( H S H u.) U 9.| N F ~ H 6.X.~ ) ) W >.B L 8.S ) H ( B B ~ ` c ",
"t ;.B ~ ~ n V O.7.U ( n U B | H ( D  .Y p V <.~ m  ._ p u G 1.[ ~ O.~ | H Y E 6 ",
"f ) n ^ z I N _ ! *.a S ! U w I @ #.G z n O.z z U U ! z e N R S p G E R ) +.S t ",
"c ~ m y o.L [ Y 3.) H B q.o.H j [ $.$.E L ) ! 3.#.o.~ ~ ( $.G ( ~ r [ E B [ n g ",
"C S ) I ) L H B ( B E S 3.U ( I Y B F H ( ~ N [ U Y ~ o.G W 0  .S N ! ' L W ~ : ",
"2 [ H o. .Y -.F [ H o.! W u L j E W 4 $.( L j 1 o.U # $.S R ( Y S G ( p P n 6.l ",
"2 B R F  .E ) E L u R -.W ! ( o.y ( L ) L H I j G z L o.p B [ ~ ~ L U H e.W Q k ",
"t X.| o.W ( F F $.) E [ L ~ W I Y E $.( Y E Y N ~ _ W E I j $.) S >.V $.o.$.H f ",
"2 n z r.a H $.S ) +.F I H A H O.! U _ a I N z I G *.O.I r.I H O.| ;.U _ E B T k ",
"t S 7.L N n -.E ( 9.[ ~ U E ( O.*.Y ~ q.( [ ~ -.D Y ( U [ L U $.B F E E U H T k ",
"7 ;.I B ( ,.3.F W 6.Y Y F Y n L [ o.U ( -.= ! >.o.) ) B ( $.D G y *.V 0 ~ ( [ k ",
"c -.W [ B ) ( L V -.S L V e.3.V R u I Y W D   N Y U 3.H D j >.Y W F U [ S o.9.k ",
"C ) F L W q.V H 7.L S / W M ' ( E ) ( [ ~ [ >.j r n o.*.8.N ( T V Y r E L Y U C ",
"g E [ ( ! Y W W & ( [ $.$.o.H Y E q.~ $.y *.L j N $.W >.W N U ~ H -.~ r ~ B W C ",
"6 >.[ Y ( G *.B  .I z ) ) u S *.R G N O.I ~ | n G ~ ! 3.Y ~ E F -.( @ E U ! ) 6 ",
"k ~ V R U >.I j _ W U t.$.o.) U w.A y ~ G W L W W [ ~ R ) E E ~ E F >.E U S <.k ",
"d E ( H 3.( o.U ( o.3.j H q.E A 8.[ m Y ~ N B G L 8.U ( j Y [ [ ' Y i.F $.F 9 k ",
"7 S S ( 8.V V W V N L m ~ [ M [ Y ~ R W E Y N L j ( U W ( U -.$.n >.m n [ 3.>.$ ",
"v ( V W U S [ U -.V [ ( #.Y W >.E F { -.~ %.j -.V T Y Y Z F V N r / y N L W Q c ",
"v ) F [ ( T W M ' F W E ) -.) e.W B U W e.S P [ W ( F U ^ Y Y L B ( $.Z Z ) Z K ",
"t T +.) j U Y Y E ) ) M [ W 3.B B ~ F ~ o.n U F ` D F t.M [ ) 3.S S [ y.Z ) ~ f ",
"5 ~ V ) Y E T H L 3.~ 3.y U X.j 3.B V W V q.N Y X.( ~ n U B { E T %.E W L N F f ",
"c U Z ) L F Y L >.Y L j 8.Y i Y >.E #.-.V U 8.j Q W $.T o.y.-.-.S ~ ' #.~ +.e.s ",
"t / -.V H L ( W Y H U [ { -.B y L . p W #.~ U o.>.D r L { ( U N p W Q L [ ~ Y 6 ",
"K w.S W W u.u $.q.F 8.S V [ / o.H S ^ ) ~ N >.P L N ~ 8.L [ Q E U D Y L B ~ %.f ",
"t B ) Y -.[ Y 8.' 8.U ) Y [ Y E ( W W H F j Y 9.T / ~ 3.H B >.* #.F Y ) W M { s ",
"C ` E r %.E o.-.~ r [ V p S E ~ ~ >.e j ) ` -.n E B B 6.( U P ) ) F B F V U ~ C ",
"b t.~ U +.( [ H 8.) Y j L L ~ X.U L U ) u Y ~ n -.S ) L 3.j y 0 W o.~ 9 q.3.E k ",
"C W / ) E U B n ,.o.~ >.Q W T o.E $.S Y 3.e.^ 3.,.q.V W { j $.F o.~ >.,.n W Q K ",
"5 o.L B L e W #.o.S Y E H 3.F Y L H o.E V -.Y E W 8.Z V L L { q.D ~ o.~ -.[ q.c ",
"k / ^ T q.F ) n $.H Y V ) 3.-.#.E q u ) ~ ( F j #.~ n o./ ^ ,.( F ~ ( Z P ;.y 3 ",
", / $.~ P { F ~ W o.S $.( H n E U e u.8.) P o.E ) ) L q.,.$.Y M W T S H W R %.g ",
"k %.;.Q S F = $.$.i H ( E U Q u.E Y H o.H ) 9.S P D o.L H F U { n ~ ~ Y T ;.+.d ",
"f 6.S U o.F Y [ i ( [ 3.T 9.L { Y E m D ) ) B B T w.) 9 ` Y H H %.E E 3.` ;.B C ",
"d { V T [ Q e.T >.~ 8.( $.j U { i j j Y 8.Z Y T -.^ [ Y j E Y / [ [ U W o.N { C ",
"d E E ) >.B ( F T i m U 8.  E $.~ ( ) D P W ^ E ) 3.E $.H Q ^ Y S e.1 ( V L >.J ",
"v E F Z / [ L o.o.Z V L 3.3.L W Z V -.U F U E U F U ( P L D T >.F >.>.L ' ) 6.6 ",
"C T T B ~ E ,.+.P [ ` Y ) H n { i./ P m E ` B E L S E y.% E a / ` T E H Z W 6.c ",
"+ c x 2 s s v x l s 5 k 3 < h l s o d - 3 C l 3 < 6 6 h x 7 t t 3 l g - s 8 g O "
};
