/* XPM */
static char *_8f2cda065b44ee9a4691437b2b2fe55ivb21KZu4Gsls02I[] = {
/* columns rows colors chars-per-pixel */
"40 40 16 1 ",
"  c black",
". c #800000",
"X c #008000",
"o c #808000",
"O c navy",
"+ c #800080",
"@ c #008080",
"# c #808080",
"$ c #C0C0C0",
"% c red",
"& c green",
"* c yellow",
"= c blue",
"- c magenta",
"; c cyan",
": c white",
/* pixels */
"$$$$$$$$$$$$$$$$$$$$$$$$$$$$$$$$$$$$$$$$",
"$$$$$$$$$$$$$$$$$$$$$$$$$$$$$$$$$$$$$$$$",
"$$$$$$$$$$$$##$$$$$$$$$$$###$$$$$$$$$$$$",
"$$$$$$$$$$#....#$$$$$$$##...O$$$$$$$$$$$",
"$$$$$$$$$# %%%%.#$$$$$ .%%%%.#$$$$$$$$$$",
"$$$$$$$$$ %%%%%%.#$$$ ..  o%% $$$$$$$$$$",
"$$$$$$$$$O%%%#@#.#$$# .#::oo%.$$$$$$$$$$",
"$$$$$$$$$#%%.#:$# #$ .#:::.%% ### #$$$$$",
"$$$$$$$$$ %%o#::$  # #::: .%o ..%.#$$$$$",
"$$$$$   ##.%%.O::$  .$$# o%# o%## $$$$$$",
"$$$$ o%%o   o%# #$#    oo#  #  ###$$$$$$",
"$$$$#######    o            ##$$$$$$$$$$",
"$$$$$$$$$$###             ###### $$$$$$$",
"$$$$$########### ...o.#$$$$$::::#$$$$$$$",
"$$$$$ $$$$$$$$:$ %%%%%#$::::::::##$$$$$$",
"$$$$$ $::::::::$ %%%%%#$::::::::##$$$$$$",
"$$$$$ $::::::::$.%%%%%o$::::::::$#$$$$$$",
"$$$$$#$::::::::$#o%%%%.$::::::::##$$$$$$",
"$$$$$##:::::::::#.%%%%.$$$$$$## #$$$$$$$",
"$$$$$##$######$##.%%%%.     ####$$$$$$$$",
"$$$$$$  ########@.%%%%.$:::::::##$$$$$$$",
"$$$$$$$#::::::::#.%%%%.#:::::::##$$$$$$$",
"$$$$$$$#::::::::#.%%%%.#:::::::##$$$$$$$",
"$$$$$$$#$:::::::#.%%%%o#$::::::##$$$$$$$",
"$$$$$$$#$:::::::$.%%%%o#$::::::##$$$$$$$",
"$$$$$$$#$:::::::$.%%%%o#$::::::$#$$$$$$$",
"$$$$$$$#$:::::::$o%%%%o#$::::::$#$$$$$$$",
"$$$$$$$##:::::::$#%%%%o#$::::::$#$$$$$$$",
"$$$$$$$##:::::::$#%%%%o#$::::::$#$$$$$$$",
"$$$$$$$##:::::::$#%%%%%o$::::::$#$$$$$$$",
"$$$$$$$##:::::::$#%%%%%.$::::::$#$$$$$$$",
"$$$$$$$##:::::::$#o%%%%.$:::::::##$$$$$$",
"$$$$$$$$#$::::::$#.%%%% $:::::::##$$$$$$",
"$$$$$$$$#$::::::$#.%%%% $:::::::#$$$$$$$",
"$$$$$$$$#::::::::#.%%%%.#$$::$$# $$$$$$$",
"$$$$$$$$##$$###    ###  ##     #$$$$$$$$",
"$$$$$$$$$#####$$$$$##$$$$$$$$$$$$$$$$$$$",
"$$$$$$$$$$$$$$$$$$$$$$$$$$$$$$$$$$$$$$$$",
"$$$$$$$$$$$$$$$$$$$$$$$$$$$$$$$$$$$$$$$$",
"$$$$$$$$$$$$$$$$$$$$$$$$$$$$$$$$$$$$$$$$"
};
