/* XPM */
static char *_58de4e10a2946928693813b20b3cf46sq5RSkalyzcDGrYr[] = {
/* columns rows colors chars-per-pixel */
"40 40 16 1 ",
"  c black",
". c #800000",
"X c #008000",
"o c #808000",
"O c navy",
"+ c #800080",
"@ c #008080",
"# c #808080",
"$ c #C0C0C0",
"% c red",
"& c green",
"* c yellow",
"= c blue",
"- c magenta",
"; c cyan",
": c white",
/* pixels */
"$$$$$$$$$$$$$$$$$$$$$$$$$$$$$$$$$$$$$$$$",
"$$$$$$$$$$$$$$$$$$$$$$$$$$$$$$$$$$$$$$$$",
"$$$$$$$$$$$$###$$$$$$$$$$$##$$$$$$$$$$$$",
"$$$$$$$$$$$O...##$$$$$$$#....#$$$$$$$$$$",
"$$$$$$$$$$#.%%%%. $$$$$#.%%%% #$$$$$$$$$",
"$$$$$$$$$$ %%o  .. $$$#.%%%%%% $$$$$$$$$",
"$$$$$$$$$$.%oo::#. #$$#.#@#%%%O$$$$$$$$$",
"$$$$$# ### %%.:::#. $# #$:#.%%#$$$$$$$$$",
"$$$$$#.%.. o%. :::# #  $::#o%% $$$$$$$$$",
"$$$$$$ ##%o #%o #$$.  $::O.%%.##   $$$$$",
"$$$$$$###  #  #oo    #$# #%o   o%%o $$$$",
"$$$$$$$$$$##            o    #######$$$$",
"$$$$$$$ ######             ###$$$$$$$$$$",
"$$$$$$$#::::$$$$$#.o... ###########$$$$$",
"$$$$$$##::::::::$#%%%%% $:$$$$$$$$ $$$$$",
"$$$$$$##::::::::$#%%%%% $::::::::$ $$$$$",
"$$$$$$#$::::::::$o%%%%%.$::::::::$ $$$$$",
"$$$$$$##::::::::$.%%%%o#$::::::::$#$$$$$",
"$$$$$$$# ##$$$$$$.%%%%.#:::::::::##$$$$$",
"$$$$$$$$####     .%%%%.##$######$##$$$$$",
"$$$$$$$##:::::::$.%%%%.@########  $$$$$$",
"$$$$$$$##:::::::#.%%%%.#::::::::#$$$$$$$",
"$$$$$$$##:::::::#.%%%%.#::::::::#$$$$$$$",
"$$$$$$$##::::::$#o%%%%.#:::::::$#$$$$$$$",
"$$$$$$$##::::::$#o%%%%.$:::::::$#$$$$$$$",
"$$$$$$$#$::::::$#o%%%%.$:::::::$#$$$$$$$",
"$$$$$$$#$::::::$#o%%%%o$:::::::$#$$$$$$$",
"$$$$$$$#$::::::$#o%%%%#$:::::::##$$$$$$$",
"$$$$$$$#$::::::$#o%%%%#$:::::::##$$$$$$$",
"$$$$$$$#$::::::$o%%%%%#$:::::::##$$$$$$$",
"$$$$$$$#$::::::$.%%%%%#$:::::::##$$$$$$$",
"$$$$$$##:::::::$.%%%%o#$:::::::##$$$$$$$",
"$$$$$$##:::::::$ %%%%.#$::::::$#$$$$$$$$",
"$$$$$$$#:::::::$ %%%%.#$::::::$#$$$$$$$$",
"$$$$$$$ #$$::$$#.%%%%.#::::::::#$$$$$$$$",
"$$$$$$$$#     ##  ###    ###$$##$$$$$$$$",
"$$$$$$$$$$$$$$$$$$$##$$$$$#####$$$$$$$$$",
"$$$$$$$$$$$$$$$$$$$$$$$$$$$$$$$$$$$$$$$$",
"$$$$$$$$$$$$$$$$$$$$$$$$$$$$$$$$$$$$$$$$",
"$$$$$$$$$$$$$$$$$$$$$$$$$$$$$$$$$$$$$$$$"
};
