/* XPM */
static char *be13127bd23e4fec87a94ba7f0676558MSYewXxvJfW1CPRu[] = {
/* columns rows colors chars-per-pixel */
"40 40 139 2 ",
"   c black",
".  c #390B00",
"X  c #4B1700",
"o  c #4C1D04",
"O  c #4F2008",
"+  c #553804",
"@  c #593A05",
"#  c #563A0A",
"$  c #593D0D",
"%  c #5F3016",
"&  c #593F11",
"*  c #583C30",
"=  c #603622",
"-  c #623A26",
";  c #5F4212",
":  c #5D4418",
">  c #684B1A",
",  c #654E24",
"<  c #7C4727",
"1  c #7C4B2D",
"2  c #664737",
"3  c #674838",
"4  c #6C4938",
"5  c #665333",
"6  c #685637",
"7  c #6E5C3A",
"8  c #725C38",
"9  c #736245",
"0  c #7A6C5E",
"q  c #7C705E",
"w  c #786961",
"e  c #776F6A",
"r  c #7A736F",
"t  c #7B7366",
"y  c #6F767D",
"u  c #74797D",
"i  c #7F7F7F",
"p  c #72777C",
"a  c #8A0C00",
"s  c #970D00",
"d  c #951708",
"f  c #880015",
"g  c #B20822",
"h  c #BB1A2C",
"j  c #9F263F",
"k  c #B12233",
"l  c #E50000",
"z  c #E9080D",
"x  c #ED060B",
"c  c #F40407",
"v  c #FF0101",
"b  c #F70F0F",
"n  c #FE0E0B",
"m  c #F91212",
"M  c #FF1C1C",
"N  c #DC2A2A",
"B  c #805030",
"V  c #8A5937",
"C  c #902C48",
"Z  c #9C2741",
"A  c #A45D5D",
"S  c #BC5858",
"D  c #8A6B68",
"F  c #9F6D6D",
"G  c #837E7E",
"H  c #887575",
"J  c #997979",
"K  c #967E7F",
"L  c #AD6262",
"P  c #C75151",
"I  c #F56F4F",
"U  c #FF7957",
"Y  c #FF7756",
"T  c #5F8F71",
"R  c #4F957C",
"E  c yellow",
"W  c #86817D",
"Q  c #89827C",
"!  c #FF8E67",
"~  c #FFA276",
"^  c #EFB37F",
"/  c #004E9A",
"(  c #06579D",
")  c #0C5799",
"_  c #0E599A",
"`  c #1B5D97",
"'  c #145B9A",
"]  c #185D99",
"[  c #304F86",
"{  c #196F99",
"}  c #2B6A8D",
"|  c #236492",
" . c #216198",
".. c #326997",
"X. c #366B99",
"o. c #0059A7",
"O. c #0B5AA2",
"+. c #035CAA",
"@. c #0564A4",
"#. c #0A62A2",
"$. c #0065A8",
"%. c #1060A9",
"&. c #0062B1",
"*. c #466D8F",
"=. c #557087",
"-. c #6B7B8A",
";. c #737F87",
":. c #657F94",
">. c #6E8C8C",
",. c #768484",
"<. c #7C8282",
"1. c #6C8198",
"2. c #7A8892",
"3. c #629898",
"4. c #649494",
"5. c #818386",
"6. c #828689",
"7. c #87888A",
"8. c #95918B",
"9. c #9B948D",
"0. c #848991",
"q. c #AB9B8D",
"w. c #DBB28D",
"e. c #CCB096",
"r. c #EBBA8F",
"t. c #EDB784",
"y. c #FFB885",
"u. c #E9BA91",
"i. c #FFC182",
"p. c #FFC38C",
"a. c #FFC98D",
"s. c #FFD58A",
"d. c #F4C291",
"f. c #FFC790",
"g. c #FFCC93",
"h. c #FFD499",
"j. c #FFDD9D",
"k. c #FFDEA3",
"l. c #FFE0A4",
/* pixels */
"i i i i i i i i i i i G ,.>.>.>.>.>.>.>.>.>.>.>.>.>.,.G i i i i i i i i i i i i ",
"i i i i i i i i i i i ,.A v v v v v v v v v v v v v A ,.i i i i i i i i i i i i ",
"i i i i i i i i i i ,.3.b v v v v v v v v v v v v v b 3.,.i i i i i i i i i i i ",
"i i i i i i i i i ,.P v v v v v v v v v v v v v v v v v P ,.i i i i i i i i i i ",
"i i i i i i i i ,.L v v v v v v v v v v v v v v v v v v v L ,.i i i i i i i i i ",
"i i i i i i i i <.D s d d d d d a I U Y U I a d d d d d s D <.i i i i i i i i i ",
"i i i i i i i i 5.e p.p.p.p.p.p.p.t.g.f.p.p.p.p.p.p.p.p.p.e 5.i i i i i i i i i ",
"i i i i i i i 5.r 0 p.p.p.p.f f f f p.k.p.f f f f p.p.p.p.0 r 5.i i i i i i i i ",
"i i i i i i 5.w X < p.p.p.p.p.    p.p.k.p.p.    p.p.p.l.k.< X w 5.i i i i i i i ",
"i i i i i i 6.= o 1 g.h.p.p.p.    p.p.k.p.p.    p.p.p.h.g.1 o = 6.i i i i i i i ",
"i i i i i i 6.- o 1 g.h.p.p.p.p.p.p.p.k.p.p.p.p.p.p.p.h.g.1 o - 6.i i i i i i i ",
"i i i i i i 6.- o 1 k.k.p.p.p.p.p.p.  k.  p.p.p.p.p.p.k.k.1 o - 6.i i i i i i i ",
"i i i i i i 6.- O % V B p.p.p.p.p.p.p.p.p.p.f.p.p.p.p.B V % O - 6.i i i i i i i ",
"i i i i i i 5.4 o o X . ^ g.f.  p.p.p.p.p.p.p.  f.g.^ . X o o 4 5.i i i i i i i ",
"i i i i i i i 0.4 2 3 * t.p.p.p.              p.p.p.t.* 3 2 4 0.i i i i i i i i ",
"i i i i i i i i 5.5.6.;.d.p.p.p.p.p.p.p.p.p.p.p.p.p.d.;.6.5.5.i i i i i i i i i ",
"i i i i i i i i i <.,.u d.a.p.p.p.p.p.f.p.p.p.p.p.a.d.u ,.<.i i i i i i i i i i ",
"i i i i i i i i <.G N v v v g o.+.l v v v l +.o.g v v v N G <.i i i i i i i i i ",
"i i i i i i i i >.F v v v v h @.$.z v v v z $.@.h v v v v F >.i i i G G i i i i ",
"i i i i i i i 4.M b v v v v h @.$.z v v v z $.@.h v v v v b M 4.i i i G i i i i ",
"i i i i i ,.>.M v v v v v v h @.$.c v v v c $.@.h v v v v v v M >.,.i i i i i i ",
"i i i i i J S m v v v v v v h @.#.C j Z j C #.@.h v v v v v v m S J ,.H i ;.i i ",
"p i i i i n v v v v v v v v h $.' #.@.@.@.#.' $.h v v v v v v v v n 7.H G G i G ",
"y i i i i v n n n n v v x c k { } ] ] ] ] ] } { k c x v v n n n n v K 5.G G i i ",
"y i i i i j.h.h.j.~ v v ` &.R E E } ' ] ' } E E R &.` v v ~ j.h.h.j.8.W i i i i ",
"u i i i i p.p.p.f.! v v [ O.T E E } ' ] ' } E E T O.[ v v ! f.p.p.p.8.W T i i i ",
"i i i i i p.p.p.p.p.y.i...' ] | | ] ] ] ] ] | | ] ' ..i.y.p.p.p.p.p.8.W T T G G ",
"i i i i i p.p.p.p.p.a.s...' ] ' ' ] ] ] ] ] ' ' ] ' ..s.a.p.p.p.p.p.8.W i i G G ",
"i i i i i p.p.p.p.w.:.2. .] ] ] ] ] ] ] ] ] ] ] ] ]  .2.:.w.p.p.p.p.8.Q i i i i ",
"i i i i i g.p.p.a.e./ ) ] ] ] ] ] ' ' ' ' ' ] ] ] ] ] ) / e.a.p.p.g.9.u i i i i ",
"i i i i i q.r.r.u.=._ ] ] ] ] ] ' X.X.X.X.X.' ] ] ] ] ] _ =.u.r.r.q.u i i i i i ",
"i i i i i i u u u -._ ] ] ] ] ] ( i Q W Q i ( ] ] ] ] ] _ -.u u u u i i i i i i ",
"i i i i i i i <.6.1.+.%.%.%.O.( *.G i i i G *.( O.%.%.%.+.1.6.<.i i i i i i i i ",
"i i i i i i <.i > ; $ $ $ @ 8 6.W i i i i i W 6.8 @ $ $ $ ; > i <.i i i i i i i ",
"i i i i i <.0., # $ $ $ $ # 7 5.i i i i i i i 5.7 # $ $ $ $ # , 0.<.i i i i i i ",
"i i i i i t 5 : $ & & & & # 7 5.i i i i i i i 5.7 # & & & & $ : 5 t <.i i i i i ",
"i i i i i q + # # # # # # # 9 5.i i i i i i i 5.9 # # # # # # # + q <.i i i i i ",
"i i i i i 5.0 5 6 6 6 6 6 9 6.i i i i i i i i i 6.9 6 6 6 6 6 5 0 5.i i i i i i ",
"i i i i i i <.5.5.5.5.5.5.5.i i i i i i i i i i i 5.5.5.5.5.5.5.<.i i i i i i i ",
"i i i i i i i i i i i i i i i i i i i i i i i i i i i i i i i i i i i i i i i i "
};
