/* XPM */
static char *f2b3ff0676844361f29ec89ca0f888312GmZFV47eYV8H3CV[] = {
/* columns rows colors chars-per-pixel */
"40 40 197 2 ",
"   c #000000",
".  c #1D1811",
"X  c #390C00",
"o  c #341200",
"O  c #3D3123",
"+  c #2C2D2E",
"@  c #570000",
"#  c #411500",
"$  c #4B1C04",
"%  c #471900",
"&  c #4C240C",
"*  c #46230B",
"=  c #52240D",
"-  c #553906",
";  c #563B0B",
":  c #593D0D",
">  c #553703",
",  c #5F3016",
"<  c #593F11",
"1  c #5A2C13",
"2  c #68381C",
"3  c #4A3A2A",
"4  c #443424",
"5  c #503F2E",
"6  c #583C30",
"7  c #623A26",
"8  c #603622",
"9  c #5E410F",
"0  c #5E4315",
"q  c #644715",
"w  c #54422F",
"e  c #564230",
"r  c #5C4833",
"t  c #7A492A",
"y  c #694838",
"u  c #665333",
"i  c #685636",
"p  c #6D5B3A",
"a  c #6C553D",
"s  c #6C552E",
"d  c #3C3F41",
"f  c #582B5E",
"g  c #693B63",
"h  c gray28",
"j  c #6D5E45",
"k  c #736245",
"l  c #756C5C",
"z  c #796C5C",
"x  c #766555",
"c  c #7C705E",
"v  c #6D4461",
"b  c #786C66",
"n  c #7B736B",
"m  c #6D757C",
"M  c #65717B",
"N  c #71777D",
"B  c #75797D",
"V  c #7F7F7F",
"C  c #951708",
"Z  c #910D00",
"A  c #BB1A2C",
"S  c #B20822",
"D  c #9F263F",
"F  c #B12233",
"G  c #AA2137",
"H  c #E9080D",
"J  c #E90306",
"K  c #FF0101",
"L  c #FE0C0B",
"P  c #F50709",
"I  c #FF1C1C",
"U  c #F51414",
"Y  c #DC2A2A",
"T  c #EC2626",
"R  c #875535",
"E  c #C74D37",
"W  c #FF4F35",
"Q  c #FF523A",
"!  c #982943",
"~  c #B44C4C",
"^  c #A55C5C",
"/  c #BE5455",
"(  c #BC5858",
")  c #AC494C",
"_  c #96704E",
"`  c #997654",
"'  c #A37D5A",
"]  c #9F6D6D",
"[  c #837E7E",
"{  c #897E7E",
"}  c #887575",
"|  c #987C7C",
" . c #8A6B68",
".. c #AD6262",
"X. c #BF776D",
"o. c #D34141",
"O. c #C75151",
"+. c #FF5840",
"@. c #F56F4F",
"#. c #E06551",
"$. c #FF7756",
"%. c #FF7957",
"&. c #FF7D5A",
"*. c #5F8F71",
"=. c #4F957C",
"-. c #B9CD3D",
";. c #FFFF01",
":. c #FFFF12",
">. c #9D835E",
",. c #86817D",
"<. c #8A827B",
"1. c #928478",
"2. c #BB976D",
"3. c #C0895E",
"4. c #C58F62",
"5. c #C79469",
"6. c #FF8E67",
"7. c #DFA776",
"8. c #E6AD7B",
"9. c #FFA276",
"0. c #EFB37F",
"q. c #AFD143",
"w. c #044D97",
"e. c #04559C",
"r. c #0C599B",
"t. c #0C5799",
"y. c #1D5B95",
"u. c #145B9A",
"i. c #185D99",
"p. c #304F86",
"a. c #205893",
"s. c #1D6996",
"d. c #2A698D",
"f. c #3D678D",
"g. c #226492",
"h. c #216198",
"j. c #326997",
"k. c #366B99",
"l. c #3B6C9A",
"z. c #004BA6",
"x. c #0354A3",
"c. c #0B5BA2",
"v. c #045CA9",
"b. c #005AB2",
"n. c #0664A4",
"m. c #0962A2",
"M. c #0065A8",
"N. c #1060A9",
"B. c #1B63A0",
"V. c #0062B1",
"C. c #0071BA",
"Z. c #486C8C",
"A. c #416C92",
"S. c #557087",
"D. c #6B7D87",
"F. c #797E83",
"G. c #657F94",
"H. c #6E8C8C",
"J. c #768384",
"K. c #7C8182",
"L. c #728B8B",
"P. c #7A858B",
"I. c #639696",
"U. c #7E9999",
"Y. c #738595",
"T. c #818386",
"R. c #8A8583",
"E. c #8C8884",
"W. c #82868A",
"Q. c #8B8B8A",
"!. c #838A8E",
"~. c #958A84",
"^. c #95918B",
"/. c #9D938A",
"(. c #848991",
"). c #A89788",
"_. c #BAA694",
"`. c #C6A88B",
"'. c #C6AD93",
"]. c #D4B08F",
"[. c #EBBA8F",
"{. c #ECB685",
"}. c #E6B992",
"|. c #FFB885",
" X c #FFC38C",
".X c #FFC98C",
"XX c #FFC182",
"oX c #FEC691",
"OX c #FFCB92",
"+X c #F4C291",
"@X c #FFD297",
"#X c #FFD499",
"$X c #FFDD9C",
"%X c #FFD58A",
"&X c #FFDEA2",
"*X c #FFE1A4",
"=X c #FFE8A8",
/* pixels */
"V V V V V V V V V V V V V V V V J.H.H.H.H.H.H.H.H.H.H.H.H.H.J.{ V V V V V V V V ",
"V V V V V V V V V V V V V V V K.o.K K K K K K K K K L L L K ^ J.[ [ V V V V V V ",
"V V V V V V V V V L.L.L.L.L.H.U.K K K K K K K K K K K K K K L I.J.V V V V V V V ",
"V V V V V V V V P.T K L L L L L K K K K K K K K K K K K K K K K O.J.V V V V V V ",
"V V V V V V V J.~ K K K K K K K K K K K K K K K K K K K K K K K K ..J.V V V V V ",
"V V V V V V V V L.^ ~ ~ ) #.%.%.@ @ E &.$.$.$.$.%.@.Z C C C C C Z  .K.V V V V V ",
"V V V V V V V V V J.J.J.D.`.@XOX    >.#XOXOXOXOXOX{.o * & & & * % n T.V V V V V ",
"V V V V V V V V B ~.~.~.E.]. X X    ' OX X X X X XOX7.2 1 = = t 2 z n T.V V V V ",
"V V V V V V V V /. X.X.X.X X X X    ' OX X X X X X XoX&XR $ 2 *X&Xt % b T.V V V ",
"V V V V V V B M `. X X X XOX$X#X    ` OX X X X X X XOX*XR $ 2 @XOXt $ 8 W.V V V ",
"V V V V V V _.@X X X X XOXr     *XOX X X X X X X XOX4.X = & 2 @XOXt $ 7 W.V V V ",
"V V V V V F.{..XOX@X@X@X&Xa     =X@XOX X X X X X X X8.2 # # , &X&Xt $ 7 W.V V V ",
"V V V V V V T._.x 4 3 3 5 .     w O 2.OX X X X X X XOX8.4.5.3.R R , & 7 W.V V V ",
"V V V V V V V K.d                   ` OX X X X X X X X XOXOX0.X $ $ $ y T.V V V ",
"V V V V V V V V Q.h + r e e e e e 3 5.oX X X X X X X X X X X{.6 y y y !.V V V V ",
"V V V V V V V V V T.Q.$X@X@X@X@X@X@XOX X X X X X X X X X X X+XF.W.T.T.V V V V V ",
"V V V V V V V V V V V )..X X X X X X X X X XoXoX X X X X X.X+XN J.K.V V V V V V ",
"V V V V V V V V V V V V N N m P.K K f x.w.K K K K J v.v.S K K K Y { K.V V V V V ",
"V V V V B V V V V V V J.L.L.H.U.K K g m.y.K K K K H M.n.A K K K K ] H.V V V V V ",
"V V V m }.K.V V V V J.} L U U U K K g m.y.K K K K H M.n.A K K K K U I I.V V V V ",
"V V m ]..X#Xm B J.J.L.K K K K K K K g m.a.K K K K P M.n.A K K K K K K I H.J.*.V ",
"V T.`.}. X.X<.'.X./ ( K K K K K K K g m.y.G ! ! D ! m.n.A K K K K K K U ( | J.} ",
"N oX.X X X X_ $XW K K K K K K K K K g c.u.n.n.n.n.m.u.M.A K K K K K K K K L R.} ",
"m .X X X X X{.2.+.K K K K K K K H K v s.d.u.i.i.i.i.d.s.F P H K K L L L L K | R.",
"m .X X X X X X@XQ K K K K K K K C.b.q.;.:.z.i.i.u.d.;.;.=.V.y.K K 9.$X#X#X$X^.,.",
"B '..X.X.X.X.X#XW K K K K K K K M.x.-.;.:.z.i.i.u.d.;.;.*.c.p.K K 6.OX X X X^.,.",
"V F.E.R.R.R.R.E.R.{ { { { { { ~.r.u.s.g.g.u.i.i.i.i.g.g.i.u.j.XX|. X X X X X^.,.",
"V V V V V V V V V K.K.K.K.K.,.Q.r.i.u.u.u.i.i.i.i.i.u.u.i.u.j.%X.X X X X X X^.,.",
"V V V V V V V V V V V V V <.Z.A.u.i.i.i.i.i.i.i.i.i.i.i.i.i.h.P.G.]..X X X.X^.<.",
"V V V V V V V V V V V V ,.Z.u.u.i.i.i.i.i.u.u.u.u.u.i.i.i.i.i.t.w.'..X X XOX/.B ",
"V V V V V V V V V V V V ,.f.u.i.i.i.i.i.i.l.k.k.k.k.u.i.i.i.i.i.r.S.[.[.[.).B V ",
"V V V V V V V V V V V V ,.f.u.i.i.i.i.u.B.1.,.,.<.V e.i.i.i.i.i.r.D.B N N B V V ",
"V V V V V V V V V V V T.Q.l.v.N.N.N.c.e.Y.[ V V V [ Z.e.c.N.N.N.v.Y.W.T.V V V V ",
"V V V V V V V V V V T.l q 9 : : : > z T.,.V V V V V ,.T.p - : : : 0 q V K.V V V ",
"V V V V V V V V V T.W.> ; : : : : - l T.V V V V V V V T.p ; : : : : ; s (.K.V V ",
"V V V V V V V V T.j u ; < < < < < - l T.V V V V V V V T.p ; < < < < : 0 u n K.V ",
"V V V V V V V V T.u > ; ; ; ; ; ; : l T.V V V V V V V T.k ; ; ; ; ; ; ; - c K.V ",
"V V V V V V V V V !.p i i i i i u l T.V V V V V V V V V !.k i i i i i u z T.V V ",
"V V V V V V V V V V T.T.T.T.T.T.T.T.V V V V V V V V V V V T.T.T.T.T.T.T.K.V V V ",
"V V V V V V V V V V V V V V V V V V V V V V V V V V V V V V V V V V V V V V V V "
};
