/* XPM */
static char *_af3c07e9c2e4da3c6fd7c78d68a8763A9jvvrN3hSV4Wd7I[] = {
/* columns rows colors chars-per-pixel */
"40 40 161 2 ",
"   c black",
".  c #2C0200",
"X  c #2E0E00",
"o  c #360300",
"O  c #330800",
"+  c #3D0900",
"@  c #3E1200",
"#  c #3A1B00",
"$  c #291B0B",
"%  c #3E2A0F",
"&  c #372105",
"*  c #35281D",
"=  c #3F3023",
"-  c #410E00",
";  c #441300",
":  c #451903",
">  c #491C06",
",  c #4C1F08",
"<  c #4B2F00",
"1  c #412300",
"2  c #53250D",
"3  c #4E3201",
"4  c #533606",
"5  c #583706",
"6  c #593F11",
"7  c #5B2C13",
"8  c #613B00",
"9  c #623318",
"0  c #4B3A2A",
"q  c #673A21",
"w  c #35412F",
"e  c #705A33",
"r  c #6F5136",
"t  c #693C62",
"y  c #7A5C43",
"u  c #7F6146",
"i  c #7D6945",
"p  c #776855",
"a  c #B61027",
"s  c #BB1B2C",
"d  c red",
"f  c #FF1B1B",
"g  c #C50C25",
"h  c #C51726",
"j  c #FF3023",
"k  c #8D5A38",
"l  c #FF412F",
"z  c #FF573A",
"x  c #FF603B",
"c  c #8B2E4C",
"v  c #902C49",
"b  c #8D6B4D",
"n  c #987B4E",
"m  c #8B7456",
"M  c #AA744D",
"N  c #A67B59",
"B  c #AC764F",
"V  c #FF4748",
"C  c #FF5F42",
"Z  c #FF5A5A",
"A  c #DD6E5C",
"S  c #FF6146",
"D  c #FF7D5A",
"F  c #FF7374",
"G  c #FF7F7F",
"H  c #519A7A",
"J  c #65936D",
"K  c #608F70",
"L  c #FFFF03",
"P  c #95B453",
"I  c #948365",
"U  c #A6987F",
"Y  c #A3967C",
"T  c #A1887A",
"R  c #CD9567",
"E  c #D3996A",
"W  c #FF837C",
"Q  c #D1A473",
"!  c #FFB97B",
"~  c #F0B27C",
"^  c #E2A776",
"/  c #003F86",
"(  c #00468A",
")  c #00488C",
"_  c #0C5594",
"`  c #00509A",
"'  c #0E569E",
"]  c #00589C",
"[  c #13599B",
"{  c #185D99",
"}  c #004C9B",
"|  c #0E609F",
" . c #397486",
".. c #21639D",
"X. c #0048A9",
"o. c #0952A1",
"O. c #025DA5",
"+. c #0958A0",
"@. c #0050B5",
"#. c #0464A5",
"$. c #0962A2",
"%. c #0F60AA",
"&. c #0068AC",
"*. c #0061B1",
"=. c #0074BF",
"-. c #487195",
";. c #FF7F83",
":. c #4B81AF",
">. c #5B80A1",
",. c #5B8DB8",
"<. c #6996BD",
"1. c #5C96CC",
"2. c #7FA6C7",
"3. c #819398",
"4. c #A38D82",
"5. c #FF8686",
"6. c #FF8D8D",
"7. c #FF9797",
"8. c #D7B99E",
"9. c #FFBE84",
"0. c #C9BBB3",
"q. c #FFB6B6",
"w. c #FFC28C",
"e. c #FFC98A",
"r. c #FFC686",
"t. c #FFC691",
"y. c #FFCC93",
"u. c #FFCA9C",
"i. c #FFD296",
"p. c #FED59A",
"a. c #FFDA9D",
"s. c #FFD991",
"d. c #FFD987",
"f. c #CDC0B9",
"g. c #D0C8BB",
"h. c #FFCEA3",
"j. c #FFDFA2",
"k. c #FFD3AD",
"l. c #FFDCBD",
"z. c #FFD7B4",
"x. c #FFE3A5",
"c. c #FFEAA9",
"v. c #FFF2AF",
"b. c #8BAECC",
"n. c #90B1CE",
"m. c #BDD0E1",
"M. c #D8D2C7",
"N. c #DDD9D7",
"B. c #FFDEC1",
"V. c #F5DAC2",
"C. c #FFD2D2",
"Z. c #E2DAD6",
"A. c #FFE0C5",
"S. c #FFEDCF",
"D. c #FFE9C7",
"F. c #FFECD6",
"G. c #FFF0D5",
"H. c #FFE4E4",
"J. c #FFF3E7",
"K. c #FDFDF6",
"L. c #FFFFFF",
/* pixels */
"L.L.L.L.L.L.L.L.H.d d d d d d d d d d d d d d H.L.L.L.L.L.L.L.L.L.L.L.L.L.L.L.L.",
"L.L.L.L.L.L.L.L.d d d d d d d d d d d d d d d d L.L.L.L.L.L.L.L.L.L.L.L.L.L.L.L.",
"L.L.L.L.L.L.7.6.d d d d d d d d d d d d d d d d 6.G G G G G F L.L.L.L.L.L.L.L.L.",
"L.L.L.L.L.5.d d d d d d d d d d d d d d d d d d d d d d d d d f L.L.L.L.L.L.L.L.",
"L.L.L.L.L.V d d d d d d d d d d d d d d d d d d d d d d d d d C.L.L.L.L.L.L.L.L.",
"L.L.L.L.L.p & % % % % % $ Q x.a.a.a.a.a.c.w     v.p.D.L.L.L.L.L.L.L.L.L.L.L.L.L.",
"L.L.L.L.L.b ; > 2 2 2 : 9 ^ w.w.w.w.w.w.i.0     a.9.k.L.L.L.L.L.L.L.L.L.L.L.L.L.",
"L.L.L.Z.4.N M B > 2 q M ^ t.w.w.w.w.w.w.i.0     a.w.u.A.A.A.l.L.L.L.L.L.L.L.L.L.",
"L.L.N.q o R i.j.@ , k a.w.w.w.w.w.w.w.w.i.0     a.w.w.9.9.9.9.h.L.L.L.L.L.L.L.L.",
"L.L.0.- : R t.p.@ , k x.t.w.w.w.w.w.w.w.i.*     v.a.i.w.w.w.w.! L.L.L.L.L.L.L.L.",
"L.L.f.; : R t.p.@ 2 , . M t.w.w.w.w.w.w.w.i.a.v.    * i.w.w.w.w.! t.L.L.L.L.L.L.",
"L.L.f.; : E i.j.O > : 7 R t.w.w.w.w.w.w.w.t.y.x.    0 j.y.y.y.y.9.9.B.L.L.L.L.L.",
"L.L.f.; , k M M M M M E y.w.w.w.w.w.w.w.t.N y b     $ b u u u r G.S.L.L.L.L.L.L.",
"L.L.0.+ 2 , > O j.t.t.t.w.w.w.w.w.w.w.w.i.=                     L.L.L.L.L.L.L.L.",
"L.L.L.T o + + . p.w.w.w.w.w.w.w.w.w.w.w.i.*                   N.L.L.L.L.L.L.L.L.",
"L.L.L.L.L.L.L.L.! w.w.w.w.w.w.w.w.w.w.w.w.i.a.a.a.a.a.a.i.K.L.L.L.L.L.L.L.L.L.L.",
"L.L.L.L.L.L.L.L.r.y.y.e.e.y.y.y.y.y.y.e.e.y.y.y.9.9.9.9.t.J.L.L.L.L.L.L.L.L.L.L.",
"L.L.L.L.L.L.7.;.z C A 3.3.A C S S C A 3.3.A C z G.A.A.B.J.L.L.L.L.L.L.L.L.L.L.L.",
"L.L.L.L.L.5.d d d d a O.O.a d d d d a O.O.a d d L.L.L.L.L.L.L.L.L.L.L.L.L.L.L.L.",
"L.L.L.L.L.V d d d d s #.#.s d d d d s #.#.s d d L.L.L.L.L.L.L.L.L.L.L.L.L.L.L.L.",
"L.L.L.F d d d d d d s #.#.s d d d d s #.#.s d d d d d d F L.L.L.L.L.L.l.l.L.L.L.",
"L.L.q.d d d d d d d s #.#.h d d d d h #.#.s d d d d d d d q.L.L.L.L.J.! ! F.L.L.",
"L.F Z d d d d d d d s #.| t v c c v t | #.s d d d d d d d Z 5.F S.V.8.w.9.z.B.L.",
"V d d d d d d d d d s #.{ | $.$.$.$.| { #.s d d d d d d d d d d a.~ N t.w.9.9.k.",
"d d d d d d d d d d g @.X.' { { { { ' X.@.g d d d d d d d d d d p.N w.w.w.w.w.9.",
"a.a.a.a.c.l d d =.*.H L L J ' { { ' J L L H *.=.d d d d d d d d a.t.w.w.w.w.w.9.",
"w.w.w.w.i.j d d &.' K L L K ' { { ' K L L K ' &.d d d d d d d d i.9.9.9.9.9.9.k.",
"w.w.w.w.t.D C x O.[  .P P  .[ { { [  .P P  .[ ] W G G G G G G F S.A.A.A.A.A.l.L.",
"w.w.w.w.w.t.y.s.` { [ o.o.[ { { { { [ o.o.[ { ) L.L.L.L.L.L.L.L.L.L.L.L.L.L.L.L.",
"w.w.w.w.w.e.e.d.` { { { { { { { { { { { { { { ) L.L.L.L.L.L.L.L.L.L.L.L.L.L.L.L.",
"9.w.w.w.e.-.} ` { { { { { { { { { { { { { { { { ( ..L.L.L.L.L.L.L.L.L.L.L.L.L.L.",
"k.9.9.9.p.>._ { { { { { { _ _ _ _ _ _ { { { { { { _ :.L.L.L.L.L.L.L.L.L.L.L.L.L.",
"L.l.A.B.K.,._ { { { { { _ <.n.b.b.n.<._ { { { { { _ ,.L.L.L.L.L.L.L.L.L.L.L.L.L.",
"L.L.L.L.L.,._ { { { { { ( m.L.L.L.L.m.( { { { { { _ ,.L.L.L.L.L.L.L.L.L.L.L.L.L.",
"L.L.L.L.L.1.O.%.%.%.+./ 2.L.L.L.L.L.L.2./ +.%.%.%.O.1.L.L.L.L.L.L.L.L.L.L.L.L.L.",
"L.L.L.Y # 5 8 8 8 5 n L.L.L.L.L.L.L.L.L.L.n 5 8 8 8 5 # Y L.L.L.L.L.L.L.L.L.L.L.",
"L.L.g.1 6 6 6 6 6 4 m L.L.L.L.L.L.L.L.L.L.m 4 6 6 6 6 6 1 g.L.L.L.L.L.L.L.L.L.L.",
"L.U I 4 6 6 6 6 6 4 m L.L.L.L.L.L.L.L.L.L.m 4 6 6 6 6 6 4 I U L.L.L.L.L.L.L.L.L.",
"K.X 4 6 6 6 6 6 6 3 i L.L.L.L.L.L.L.L.L.L.i 3 6 6 6 6 6 6 4 X K.L.L.L.L.L.L.L.L.",
"L.M.< 6 6 6 6 6 4 e L.L.L.L.L.L.L.L.L.L.L.L.e 4 6 6 6 6 6 < M.L.L.L.L.L.L.L.L.L."
};
