/* XPM */
static char *eb960b01e50f44bb8e43147403d506a9XEiZgliIUsm717AF[] = {
/* columns rows colors chars-per-pixel */
"40 40 197 2 ",
"   c #000000",
".  c #1D1811",
"X  c #390C00",
"o  c #341200",
"O  c #3D3123",
"+  c #2C2D2E",
"@  c #570000",
"#  c #411500",
"$  c #4B1C04",
"%  c #471900",
"&  c #4C240C",
"*  c #46230B",
"=  c #52240D",
"-  c #553906",
";  c #563B0B",
":  c #593D0D",
">  c #553703",
",  c #5F3016",
"<  c #593F11",
"1  c #5A2C13",
"2  c #68381C",
"3  c #4A3A2A",
"4  c #443424",
"5  c #503F2E",
"6  c #583C30",
"7  c #623A26",
"8  c #603622",
"9  c #5E410F",
"0  c #5E4315",
"q  c #644715",
"w  c #54422F",
"e  c #564230",
"r  c #5C4833",
"t  c #7A492A",
"y  c #694838",
"u  c #665333",
"i  c #685636",
"p  c #6D5B3A",
"a  c #6C553D",
"s  c #6C552E",
"d  c #3C3F41",
"f  c #582B5E",
"g  c #693B63",
"h  c gray28",
"j  c #6D5E45",
"k  c #736245",
"l  c #756C5C",
"z  c #796C5C",
"x  c #766555",
"c  c #7C705E",
"v  c #6D4461",
"b  c #786C66",
"n  c #7B736B",
"m  c #6D757C",
"M  c #65717B",
"N  c #71777D",
"B  c #75797D",
"V  c #7F7F7F",
"C  c #951708",
"Z  c #910D00",
"A  c #BB1A2C",
"S  c #B20822",
"D  c #9F263F",
"F  c #B12233",
"G  c #AA2137",
"H  c #E9080D",
"J  c #E90306",
"K  c #FF0101",
"L  c #FE0C0B",
"P  c #F50709",
"I  c #FF1C1C",
"U  c #F51414",
"Y  c #DC2A2A",
"T  c #EC2626",
"R  c #875535",
"E  c #C74D37",
"W  c #FF4F35",
"Q  c #FF523A",
"!  c #982943",
"~  c #B44C4C",
"^  c #A55C5C",
"/  c #BE5455",
"(  c #BC5858",
")  c #AC494C",
"_  c #96704E",
"`  c #997654",
"'  c #A37D5A",
"]  c #9F6D6D",
"[  c #837E7E",
"{  c #897E7E",
"}  c #887575",
"|  c #987C7C",
" . c #8A6B68",
".. c #AD6262",
"X. c #BF776D",
"o. c #D34141",
"O. c #C75151",
"+. c #FF5840",
"@. c #F56F4F",
"#. c #E06551",
"$. c #FF7756",
"%. c #FF7957",
"&. c #FF7D5A",
"*. c #5F8F71",
"=. c #4F957C",
"-. c #B9CD3D",
";. c #FFFF01",
":. c #FFFF12",
">. c #9D835E",
",. c #86817D",
"<. c #8A827B",
"1. c #928478",
"2. c #BB976D",
"3. c #C0895E",
"4. c #C58F62",
"5. c #C79469",
"6. c #FF8E67",
"7. c #DFA776",
"8. c #E6AD7B",
"9. c #FFA276",
"0. c #EFB37F",
"q. c #AFD143",
"w. c #044D97",
"e. c #04559C",
"r. c #0C599B",
"t. c #0C5799",
"y. c #1D5B95",
"u. c #145B9A",
"i. c #185D99",
"p. c #304F86",
"a. c #205893",
"s. c #1D6996",
"d. c #2A698D",
"f. c #3D678D",
"g. c #226492",
"h. c #216198",
"j. c #326997",
"k. c #366B99",
"l. c #3B6C9A",
"z. c #004BA6",
"x. c #0354A3",
"c. c #0B5BA2",
"v. c #045CA9",
"b. c #005AB2",
"n. c #0664A4",
"m. c #0962A2",
"M. c #0065A8",
"N. c #1060A9",
"B. c #1B63A0",
"V. c #0062B1",
"C. c #0071BA",
"Z. c #486C8C",
"A. c #416C92",
"S. c #557087",
"D. c #6B7D87",
"F. c #797E83",
"G. c #657F94",
"H. c #6E8C8C",
"J. c #768384",
"K. c #7C8182",
"L. c #728B8B",
"P. c #7A858B",
"I. c #639696",
"U. c #7E9999",
"Y. c #738595",
"T. c #818386",
"R. c #8A8583",
"E. c #8C8884",
"W. c #82868A",
"Q. c #8B8B8A",
"!. c #838A8E",
"~. c #958A84",
"^. c #95918B",
"/. c #9D938A",
"(. c #848991",
"). c #A89788",
"_. c #BAA694",
"`. c #C6A88B",
"'. c #C6AD93",
"]. c #D4B08F",
"[. c #EBBA8F",
"{. c #ECB685",
"}. c #E6B992",
"|. c #FFB885",
" X c #FFC38C",
".X c #FFC98C",
"XX c #FFC182",
"oX c #FEC691",
"OX c #FFCB92",
"+X c #F4C291",
"@X c #FFD297",
"#X c #FFD499",
"$X c #FFDD9C",
"%X c #FFD58A",
"&X c #FFDEA2",
"*X c #FFE1A4",
"=X c #FFE8A8",
/* pixels */
"V V V V V V V V [ J.H.H.H.H.H.H.H.H.H.H.H.H.H.J.V V V V V V V V V V V V V V V V ",
"V V V V V V V V J.^ K K K K L L L L K K K K K o.K.V V V V V V V V V V V V V V V ",
"V V V V V V V J.I.L K K K K K K K K K K K K K K U.H.L.L.L.L.L.V V V V V V V V V ",
"V V V V V V P.O.K K K K K K K K K K K K K K K K L L L L L K T P.V V V V V V V V ",
"V V V V V J...K K K K K K K K K K K K K K K K K K K K K K K K ~ P.V V V V V V V ",
"V V V V V K. .Z C C C C C Z @.%.$.$.$.$.&.E @ @ %.%.#.) ~ ~ ^ L.V V V V V V V V ",
"V V V V V T.n % * & & & * o {.OXoXoXoXoX#X>.    OX@X`.D.J.J.J.V V V V V V V V V ",
"V V V V T.n z 2 t = = 1 2 7.oX X X X X XoX'      X X].E.~.~.~.B V V V V V V V V ",
"V V V T.b % t &X*X2 $ R &XoX X X X X X XoX'      X X X.X.X.X X/.B V V V V V V V ",
"V V V W.8 $ t OX#X2 $ R *XoX X X X X X XoX`     #X$XOX X X X X`.M B V V V [ V V ",
"V V V W.7 $ t OX#X2 & = X 4.oX X X X X X X XOX*X    r OX X X X X@X_.B V V V V V ",
"V V V W.7 $ t &X&X, # # 2 8. X X X X X X XoX#X=X    a &X@X@X@XOX.X{.F.V V V V V ",
"V V V W.7 & , R R 3.5.4.8.oX X X X X X XoX2.O w     . 5 3 3 4 x _.T.V V V V V V ",
"V V V T.y $ $ $ X 0.OXoX X X X X X X X XoX`                   d K.V V V V V V V ",
"V V V V !.y y y 6 {. X X X X X X X X X XoX5.3 e e e e e r + h Q.V V V V V V V V ",
"V V V V V T.T.W.F.+X X X X X X X X X X X XoX#X#X@X@X@X@X$XQ.T.V V V V V V V V V ",
"V V V V V V K.J.N +X.X X X X X XoXoX X X X X X X X X X.X).B V V V V V V V V V V ",
"V V V V V K.[ Y K K K S v.v.J K K K K w.x.f K K P.m N N B V V V V V V V V V V V ",
"V V V V V H.] K K K K A n.M.H K K K K y.m.g K K U.H.L.L.J.V V V V V V B V V V V ",
"V V V V I.I U K K K K A n.M.H K K K K y.m.g K K U U U L } J.V V V V K.}.m V V V ",
"V V J.H.I K K K K K K A n.M.P K K K K a.m.g K K K K K K K L.J.J.B m #X.X].m V V ",
"} J.| ( U K K K K K K A n.m.! D ! ! G y.m.g K K K K K K K ( / X.'.<..X X}.`.T.V ",
"} R.L K K K K K K K K A M.u.m.n.n.n.n.u.c.g K K K K K K K K K W $X_  X X X.XoXN ",
"R.| K L L L L K K H P F s.d.i.i.i.i.u.d.s.v K H K K K K K K K +.2.{. X X X X.Xm ",
",.^.$X#X#X$X9.K K y.V.=.;.;.d.u.i.i.z.:.;.q.b.C.K K K K K K K Q #X X X X X X.Xm ",
",.^. X X XoX6.K K p.c.*.;.;.d.u.i.i.z.:.;.-.x.M.K K K K K K K W #X.X.X.X.X.X'.B ",
",.^. X X X X X|.XXj.u.i.g.g.i.i.i.i.u.g.g.s.u.r.~.{ { { { { { R.E.R.R.R.R.E.F.V ",
",.^. X X X X X.X%Xj.u.i.u.u.i.i.i.i.i.u.u.u.i.r.Q.,.K.K.K.K.K.V V V V V V V V V ",
"<.^..X X X.X].G.P.h.i.i.i.i.i.i.i.i.i.i.i.i.i.u.A.Z.<.V V V V V V V V V V V V V ",
"B /.OX X X.X'.w.t.i.i.i.i.i.u.u.u.u.u.i.i.i.i.i.u.u.Z.,.V V V V V V V V V V V V ",
"V B ).[.[.[.S.r.i.i.i.i.i.u.k.k.k.k.l.i.i.i.i.i.i.u.f.,.V V V V V V V V V V V V ",
"[ V B N N B D.r.i.i.i.i.i.e.B <.,.,.1.B.u.i.i.i.i.u.f.,.V V V V V V V V V V V V ",
"[ V V V K.W.Y.v.N.N.N.c.e.Z.[ V V V [ Y.e.c.N.N.N.v.l.Q.T.V V V V V V V V V V V ",
"[ V V K.V q 0 : : : - p T.,.V V V V V ,.T.z > : : : 9 q l T.V V V V V V V V V V ",
"V V K.(.s ; : : : : ; p T.V V V V V V V T.l - : : : : : > W.T.V V V V V V V V V ",
"V K.n u 0 : < < < < ; p T.[ [ [ V V V V T.l - < < < < < : u j T.V V V V V V V V ",
"V K.c - ; ; ; ; ; ; ; k T.V V V V V V V T.l : ; ; ; ; ; ; > u T.V V V V V V V V ",
"V V T.z u i i i i i k W.V V V V V V V V V T.l u i i i i i p W.V V V V V V V V V ",
"V V V K.T.T.T.T.T.T.T.V V V V V V V V V V V T.T.T.T.T.T.T.T.V V V V V V V V V V ",
"V V V V V V V V V V V V V V V V V V V V V V V V V V V V V V V V V V V V V V V V "
};
