/* XPM */
static char *c0b27875f68d4eda97e34476bab4e3a0bklZkwdDMzPH4Fai[] = {
/* columns rows colors chars-per-pixel */
"40 40 213 2 ",
"   c #312D2E",
".  c #503431",
"X  c #532624",
"o  c #6C3F3C",
"O  c #693B36",
"+  c #632823",
"@  c #66413D",
"#  c #6A433F",
"$  c #73423D",
"%  c #3B474B",
"&  c #4B4B4C",
"*  c #484B4B",
"=  c #544B4A",
"-  c #4D5352",
";  c #535251",
":  c #575B5B",
">  c #5E5D5B",
",  c #5D5352",
"<  c #644A48",
"1  c #754E49",
"2  c #794743",
"3  c #685957",
"4  c #605E5E",
"5  c #675654",
"6  c #755A58",
"7  c #5C605F",
"8  c #4F5E60",
"9  c #5F5F61",
"0  c #5F6766",
"q  c #5A686A",
"w  c #5B6C70",
"e  c #636C6C",
"r  c #6B6767",
"t  c #736766",
"y  c #636F72",
"u  c #6A7475",
"i  c #6C7679",
"p  c #6F7C7B",
"a  c #727B7C",
"s  c #7C7A7A",
"d  c #81342B",
"f  c #95392E",
"g  c #9D392E",
"h  c #96372D",
"j  c #973A30",
"k  c #9B3D33",
"l  c #893E35",
"z  c #A33B2E",
"x  c #AB3728",
"c  c #A33D33",
"v  c #9C443B",
"b  c #994339",
"n  c #A34136",
"m  c #A4443A",
"M  c #A9463C",
"N  c #AB473B",
"B  c #B5473B",
"V  c #8C4A44",
"C  c #834B46",
"Z  c #964C43",
"A  c #8A534D",
"S  c #96524B",
"D  c #875A57",
"F  c #9A5B54",
"G  c #A74C44",
"H  c #B34D43",
"J  c #AA5249",
"K  c #BC554A",
"L  c #B45449",
"P  c #A75B53",
"I  c #B55A52",
"U  c #BC5D53",
"Y  c #AF6057",
"T  c #B8645B",
"R  c #886E6C",
"E  c #91706D",
"W  c #8D7270",
"Q  c #967977",
"!  c #926D69",
"~  c #BB746D",
"^  c #B6756E",
"/  c #B17770",
"(  c #C0574B",
")  c #C25B4D",
"_  c #C9584E",
"`  c #C25E53",
"'  c #CB5D52",
"]  c #D3594E",
"[  c #C46156",
"{  c #CB6157",
"}  c #C5655B",
"|  c #CA655B",
" . c #C6685E",
".. c #C9685F",
"X. c #D56256",
"o. c #DD6B5E",
"O. c #D4675B",
"+. c #E6685A",
"@. c #C76A61",
"#. c #CB6D63",
"$. c #D26E64",
"%. c #DC6D62",
"&. c #CD7166",
"*. c #CE746A",
"=. c #CF786E",
"-. c #D37165",
";. c #DD7265",
":. c #D2766C",
">. c #DC756A",
",. c #D3786E",
"<. c #DE796D",
"1. c #C37B74",
"2. c #CB7D74",
"3. c #D37C73",
"4. c #DC7D73",
"5. c #E36C61",
"6. c #EB6E62",
"7. c #E37265",
"8. c #E4766A",
"9. c #EA756A",
"0. c #E1796E",
"q. c #E87A6C",
"w. c #E27D72",
"e. c #EE7E73",
"r. c #80807D",
"t. c #92827F",
"y. c #BE847F",
"u. c #D48076",
"i. c #DF8176",
"p. c #D5837A",
"a. c #DB847B",
"s. c #D6887F",
"d. c #C3837D",
"f. c #E28176",
"g. c #EB8276",
"h. c #E2847B",
"j. c #E1897E",
"k. c #EA8579",
"l. c #F58478",
"z. c #727F80",
"x. c #768383",
"c. c #7B8384",
"v. c #7E8B8B",
"b. c #828584",
"n. c #858C8D",
"m. c #8B8C8C",
"M. c #848688",
"N. c #9D8C8A",
"B. c #978987",
"V. c #8F908E",
"C. c #8E8F90",
"Z. c #9F8F92",
"A. c #8C9796",
"S. c #9B9393",
"D. c #959797",
"F. c #A78C8A",
"G. c #B68984",
"H. c #A3928F",
"J. c #B8928E",
"K. c #A79A98",
"L. c #BB9591",
"P. c #B29C9C",
"I. c #B99896",
"U. c #A0A19C",
"Y. c #BDA09E",
"T. c #BAA6A2",
"R. c #A8A2A1",
"E. c #C58C86",
"W. c #C48E89",
"Q. c #CB8B85",
"!. c #DC8B83",
"~. c #DD8780",
"^. c #C4938D",
"/. c #CC928C",
"(. c #DB938C",
"). c #D5938B",
"_. c #CE9791",
"`. c #CD9994",
"'. c #CC9E99",
"]. c #C39794",
"[. c #D59B96",
"{. c #DB9B96",
"}. c #D59E99",
"|. c #D79691",
" X c #E38C83",
".X c #EB8C82",
"XX c #E88F88",
"oX c #E4938B",
"OX c #EA948C",
"+X c #EB988E",
"@X c #ED9287",
"#X c #F0968D",
"$X c #E59B94",
"%X c #EB9991",
"&X c #F29C94",
"*X c #F89E97",
"=X c #CFA09C",
"-X c #D6A19C",
";X c #DDA69F",
":X c #EEA49C",
">X c #E2A49B",
",X c #F5A49C",
"<X c #C7A6A2",
"1X c #D6AAA5",
"2X c #E4ABA5",
"3X c #E3AEAB",
"4X c #F3A9A0",
"5X c #F4AFA8",
"6X c #F7B2A9",
"7X c #EDBAB3",
"8X c #EAC2BF",
"9X c #FDC4BE",
"0X c #BEC9CA",
/* pixels */
"-X-X-X-X-X-X-X-X-X-X-X-X-X-X-X-X-X-X-X-X-X-X-X-X-X-X-X-X-X-X-X-X-X-X-X-X-X-X-X-X",
"-X-X-X-X-X-X-X-X-X-X-X-X-X-X-X-X-X-X-X-X-X-X-X-X-X-X-X-X-X-X-X-X-X-X-X-X-X-X-X-X",
"-X-X-X-X-X-X-X-X-X-X-X-X-X-X-X-X-X-X-X-X-X-X-X-X-X-X-X-X-X-X-X-X-X-X-X-X-X-X-X-X",
"-X-X-X-X-X-X-X-X-X-X-X-X-X-X-X-X-X-X-X-X-X-X-X-X-X-X-X-X-X-X-X-X-X-X-X-X-X-X-X-X",
"-X-X-X-X-X-X-X-X-X-X-X-X-X-X-X-X-X-X-X-X-X-X-X-X-X-X-X-X-X-X-X-X-X-X-X-X-X-X-X-X",
"-X-X-X-X-X-X-X-X-X-X-X-X-X-X/.W.`.-X-X-X-X-X-X-X-X-X-X-X-X-X-X-X-X-X-X-X-X-X-X-X",
"-X-X}.~.}.[.[.}.}.}.-X-X/.J.-X-X-X-X-X-X-X-X-X-X-X-X-X-X}.~ }.-X-X-X-X-X-X-X-X-X",
"-X-X}.~.~.u.u.3.3.#.} { l D.-X-X-X}.-X-X-X-X-X-X-X4X2.1 '.-X-X-X-X-X-X-X|._.-X-X",
"-X-X[.s.p.u.3.*.#.| } | b x.5XoXoXoX X X Xa.i.f.>.5.# 0X9X-X-X-X-X-X[.1.g [.-X-X",
"-X-X[.3.*.#.#.#.#.} } [ v x.4XXXXXXX X Xi.h.f.>.>.q.o c.6XXX X Xj.$.k M c }.-X-X",
"-X-XQ.#.-.$.$.#.#.| } [ b z.:X X Xh.f.w.<.<.>.;.;.q.O v.4X Xj.j.w.O.n M c }.-X-X",
"-X-XL.a t t D A Z J K ' k p ,Xf.f.w.w.<.<.>.>.;.;.7.O n.&Xj.h.<.;.O.n M z }.-X-X",
"-X-X-X1X<XT.U.A.A.x.i r 3 c./ P I  .$.q.q.q.q.8.;.9.O D.k.4.;.%.%.X.c n x }.-X-X",
"-X-X[.u.3.:.G C.6X2X<X=XT.S.n.v.x.i e r 6 D F J ' X.O D.9.7.5.%.%.' c B C -X-X-X",
"-X-X[.3.=.| v m.+XoXXX.X.XXX@X+X(.`.J.b.M.S.n.a e 7 0 s D V Z H ] ] d   Q -X-X-X",
"-X-X[.&.} } v M.OXXX X Xa.i.4.0.8.%.6.< K.%X$X$X[.`.L.H.V.b.a y - & : S Y -X-X-X",
"-X-X|.[ [ ` b c.#X Xh.h.w.w.<.>.%.%.6.# K.!.s.a.a.3.3.,.3.4.a.Q./ V c g Y -X-X-X",
"-X-Xd.H ( _ f c..X0.0.0.>.;.;.%.%.o.5.o K.~.p.3.3.3.:.*.&.#. .[ ` h j j P -X-X-X",
"-X-X'.a r 6 < n.T  .8.9.q.7.7.%.o.o.+.@ S.a.u.3.:.*.*.#.@.} [ ` [ j j j P -X-X-X",
"-X-X-X3X1XT.R.m.x.p e t D F L X.5.+.+.@ S.4.*.&.#.#.} } } [ [ U [ f j j P -X-X-X",
"-X-X-X%XOXOXOX&X:X{.].P.D.v.x.e 4 6 V = t...>.$.$.#.#.} [ [ U ` ` f f g P -X-X-X",
"-X-X-XoXoXXXXXj.h.f.w.q.#.q 1X1XY.K.V.M.a 0 > 6 A Z G ` { { [ ` ` h z + 5 -X-X-X",
"-X-X-XXXj.h.h.f.4.0.;.5.( q >X X!. XoX%X$X[.L.H.c.i u 9 , 1 C v N d   < 1.-X-X-X",
"-X-X}.g.f.w.>.>.>.%.%.5.K q {.!.~.s.u.3.3.,.,.-.3.a.4 b.J.B.u q * % F H ~ -X-X-X",
"-X-X-XF T ;.q.7.7.7.%.5.H w (.s.u.u.u.3.*.*.#. .[ ) = N.*X%X&X:X2.J N G ~ -X-X-X",
"-X-X-X'.x.u t D F K X.+.M w ).3.:.*.&.#.#.#.} } [ ) = B.#XoXXXw.0.n M M ~ -X-X-X",
"-X-X-X-X2X1XP.c.c.u e 3 < p 2.-.>.>.-.#. .} [ [ ` ) & B.XX Xf.0.>.m M M ~ -X-X-X",
"-X-X-X-XoXXX;.; 8X7X<XP.S.a e > 3 D S J | O.{ | ` K & F..X4.0.<.>.n M N E.-X-X-X",
"-X-X-X}. Xw.;.; 1X:X:X:X,X6X;XI.Z.M.u u > < 1 V G B & G.e.w.>.8.%.n B + J.-X-X-X",
"-X-X-X[.<.0.o.; 3X:X$X$X$XoXoXOX@X#X&XR r.I.m.u q : : R P  .8.9.o.B X . /.-X-X-X",
"-X-X-XX.7.7.+.; 2XOX X.X.X X Xj.i.4.g.$ H.&X%X:X{.].F.s e 8 - 5 o   @ M _.-X-X-X",
"-X-X-X-X`.W.1.W {.k. Xj.h.h.h.f.f.w.k.o N.+X(.!.!.~.j. XOX(.G.Q , C M k /.-X-X-X",
"-X-X-X-X-X-X-X-X}.`./.|.w.f.f.f.f.w.g.@ N.OX!.~.s.a.u.u.3.,.:.>.| n v k E.-X-X-X",
"-X-X-X-X-X-X-X-X-X-X-X-X}.^.W./.$.q.l.O N.XXa.a.a.4.3.3.:.:.-.&.U v v k S -X-X-X",
"-X-X-X-X-X-X-X-X-X-X-X-X-X-X-X-X-X].E.! E g.i.4.4.,.:.:.&.&.&.&.I b v c 2 =X-X-X",
"-X-X-X-X-X-X-X-X-X-X-X-X-X-X-X-X-X-X-X-X-X`.W.E.U $.>.,.:.*.#.#.I b g 2 -X-X-X-X",
"-X-X-X-X-X-X-X-X-X-X-X-X-X-X-X-X-X-X-X-X-X-X-X-X-X'.^.y.Q.| O.$.K g 1 -X-X-X-X-X",
"-X-X-X-X-X-X-X-X-X-X-X-X-X-X-X-X-X-X-X-X-X-X-X-X-X-X-X-X-X'.^.y.^ G.-X-X-X-X-X-X",
"-X-X-X-X-X-X-X-X-X-X-X-X-X-X-X-X-X-X-X-X-X-X-X-X-X-X-X-X-X-X-X-X-X-X-X-X-X-X-X-X",
"-X-X-X-X-X-X-X-X-X-X-X-X-X-X-X-X-X-X-X-X-X-X-X-X-X-X-X-X-X-X-X-X-X-X-X-X-X-X-X-X"
};
